<svg width="2595" height="100" viewBox="0 0 2595 100" fill="none" xmlns="http://www.w3.org/2000/svg">
<mask id="path-1-outside-1_733_1818" maskUnits="userSpaceOnUse" x="0.97998" y="0.209961" width="2594" height="100" fill="black">
<rect fill="white" x="0.97998" y="0.209961" width="2594" height="100"/>
<path d="M1.97998 85V2.91996H17.484V36.664H54.192V2.91996H69.696V85H54.192V51.142H17.484V85H1.97998ZM79.9987 85L105.079 2.91996H128.221L153.301 85H137.341L114.997 12.61H117.961L95.9587 85H79.9987ZM95.0467 67.9V53.422H138.367V67.9H95.0467ZM163.517 85V2.91996H179.021V70.522H202.505V2.91996H218.009V70.522H241.493V2.91996H256.997V85H163.517ZM267.253 85L292.333 2.91996H315.475L340.555 85H324.595L302.251 12.61H305.215L283.213 85H267.253ZM282.301 67.9V53.422H325.621V67.9H282.301ZM373.593 85V2.91996H387.501L414.633 57.412L441.765 2.91996H455.673V85H441.195V35.98L417.369 85H411.897L388.071 35.98V85H373.593ZM538.819 85H523.087V30.28L487.405 85H471.673V2.91996H487.405V57.64L523.087 2.91996H538.819V85ZM589.95 86.71C581.742 86.71 574.655 84.924 568.689 81.352C562.761 77.78 558.182 72.783 554.952 66.361C551.76 59.939 550.164 52.472 550.164 43.96C550.164 35.448 551.76 27.981 554.952 21.559C558.182 15.137 562.761 10.14 568.689 6.56796C574.655 2.99596 581.742 1.20996 589.95 1.20996C599.374 1.20996 607.278 3.54696 613.662 8.22096C620.084 12.895 624.606 19.222 627.228 27.202L611.61 31.534C610.09 26.556 607.525 22.699 603.915 19.963C600.305 17.189 595.65 15.802 589.95 15.802C584.744 15.802 580.393 16.961 576.897 19.279C573.439 21.597 570.836 24.865 569.088 29.083C567.34 33.301 566.466 38.26 566.466 43.96C566.466 49.66 567.34 54.619 569.088 58.837C570.836 63.055 573.439 66.323 576.897 68.641C580.393 70.959 584.744 72.118 589.95 72.118C595.65 72.118 600.305 70.731 603.915 67.957C607.525 65.183 610.09 61.326 611.61 56.386L627.228 60.718C624.606 68.698 620.084 75.025 613.662 79.699C607.278 84.373 599.374 86.71 589.95 86.71ZM675.005 86.71C666.797 86.71 659.71 84.924 653.744 81.352C647.816 77.78 643.237 72.783 640.007 66.361C636.815 59.939 635.219 52.472 635.219 43.96C635.219 35.448 636.815 27.981 640.007 21.559C643.237 15.137 647.816 10.14 653.744 6.56796C659.71 2.99596 666.797 1.20996 675.005 1.20996C684.429 1.20996 692.333 3.54696 698.717 8.22096C705.139 12.895 709.661 19.222 712.283 27.202L696.665 31.534C695.145 26.556 692.58 22.699 688.97 19.963C685.36 17.189 680.705 15.802 675.005 15.802C669.799 15.802 665.448 16.961 661.952 19.279C658.494 21.597 655.891 24.865 654.143 29.083C652.395 33.301 651.521 38.26 651.521 43.96C651.521 49.66 652.395 54.619 654.143 58.837C655.891 63.055 658.494 66.323 661.952 68.641C665.448 70.959 669.799 72.118 675.005 72.118C680.705 72.118 685.36 70.731 688.97 67.957C692.58 65.183 695.145 61.326 696.665 56.386L712.283 60.718C709.661 68.698 705.139 75.025 698.717 79.699C692.333 84.373 684.429 86.71 675.005 86.71ZM791.979 85H776.247V30.28L740.565 85H724.833V2.91996H740.565V57.64L776.247 2.91996H791.979V85ZM868.304 85H852.8V57.184H833.648L826.808 56.728C819.512 55.588 814.154 52.586 810.734 47.722C807.314 42.82 805.604 36.93 805.604 30.052C805.604 25.454 806.345 21.293 807.827 17.569C809.347 13.807 811.665 10.691 814.781 8.22096C817.897 5.75096 821.906 4.13596 826.808 3.37596C827.91 3.18596 829.126 3.07196 830.456 3.03396C831.786 2.95796 832.85 2.91996 833.648 2.91996H868.304V85ZM822.02 85H804.464L822.248 48.52L838.208 51.598L822.02 85ZM852.8 42.706V17.398H834.332C833.534 17.398 832.66 17.436 831.71 17.512C830.76 17.588 829.886 17.74 829.088 17.968C826.998 18.538 825.383 19.507 824.243 20.875C823.103 22.205 822.305 23.706 821.849 25.378C821.431 27.012 821.222 28.57 821.222 30.052C821.222 31.534 821.431 33.111 821.849 34.783C822.305 36.417 823.103 37.918 824.243 39.286C825.383 40.616 826.998 41.566 829.088 42.136C829.886 42.364 830.76 42.516 831.71 42.592C832.66 42.668 833.534 42.706 834.332 42.706H852.8ZM915.286 58.21C912.664 58.21 910.441 57.355 908.617 55.645C906.831 53.897 905.938 51.712 905.938 49.09C905.938 46.468 906.831 44.302 908.617 42.592C910.441 40.844 912.664 39.97 915.286 39.97C917.68 39.97 919.751 40.844 921.499 42.592C923.285 44.302 924.178 46.468 924.178 49.09C924.178 51.712 923.285 53.897 921.499 55.645C919.751 57.355 917.68 58.21 915.286 58.21ZM961.851 85V2.91996H977.355V36.664H1014.06V2.91996H1029.57V85H1014.06V51.142H977.355V85H961.851ZM1039.87 85L1064.95 2.91996H1088.09L1113.17 85H1097.21L1074.87 12.61H1077.83L1055.83 85H1039.87ZM1054.92 67.9V53.422H1098.24V67.9H1054.92ZM1123.39 85V2.91996H1138.89V70.522H1162.38V2.91996H1177.88V70.522H1201.36V2.91996H1216.87V85H1123.39ZM1227.12 85L1252.2 2.91996H1275.35L1300.43 85H1284.47L1262.12 12.61H1265.09L1243.08 85H1227.12ZM1242.17 67.9V53.422H1285.49V67.9H1242.17ZM1333.46 85V2.91996H1347.37L1374.5 57.412L1401.64 2.91996H1415.54V85H1401.07V35.98L1377.24 85H1371.77L1347.94 35.98V85H1333.46ZM1498.69 85H1482.96V30.28L1447.28 85H1431.54V2.91996H1447.28V57.64L1482.96 2.91996H1498.69V85ZM1549.82 86.71C1541.61 86.71 1534.53 84.924 1528.56 81.352C1522.63 77.78 1518.05 72.783 1514.82 66.361C1511.63 59.939 1510.04 52.472 1510.04 43.96C1510.04 35.448 1511.63 27.981 1514.82 21.559C1518.05 15.137 1522.63 10.14 1528.56 6.56796C1534.53 2.99596 1541.61 1.20996 1549.82 1.20996C1559.25 1.20996 1567.15 3.54696 1573.53 8.22096C1579.96 12.895 1584.48 19.222 1587.1 27.202L1571.48 31.534C1569.96 26.556 1567.4 22.699 1563.79 19.963C1560.18 17.189 1555.52 15.802 1549.82 15.802C1544.62 15.802 1540.26 16.961 1536.77 19.279C1533.31 21.597 1530.71 24.865 1528.96 29.083C1527.21 33.301 1526.34 38.26 1526.34 43.96C1526.34 49.66 1527.21 54.619 1528.96 58.837C1530.71 63.055 1533.31 66.323 1536.77 68.641C1540.26 70.959 1544.62 72.118 1549.82 72.118C1555.52 72.118 1560.18 70.731 1563.79 67.957C1567.4 65.183 1569.96 61.326 1571.48 56.386L1587.1 60.718C1584.48 68.698 1579.96 75.025 1573.53 79.699C1567.15 84.373 1559.25 86.71 1549.82 86.71ZM1634.88 86.71C1626.67 86.71 1619.58 84.924 1613.61 81.352C1607.69 77.78 1603.11 72.783 1599.88 66.361C1596.69 59.939 1595.09 52.472 1595.09 43.96C1595.09 35.448 1596.69 27.981 1599.88 21.559C1603.11 15.137 1607.69 10.14 1613.61 6.56796C1619.58 2.99596 1626.67 1.20996 1634.88 1.20996C1644.3 1.20996 1652.2 3.54696 1658.59 8.22096C1665.01 12.895 1669.53 19.222 1672.15 27.202L1656.54 31.534C1655.02 26.556 1652.45 22.699 1648.84 19.963C1645.23 17.189 1640.58 15.802 1634.88 15.802C1629.67 15.802 1625.32 16.961 1621.82 19.279C1618.36 21.597 1615.76 24.865 1614.01 29.083C1612.27 33.301 1611.39 38.26 1611.39 43.96C1611.39 49.66 1612.27 54.619 1614.01 58.837C1615.76 63.055 1618.36 66.323 1621.82 68.641C1625.32 70.959 1629.67 72.118 1634.88 72.118C1640.58 72.118 1645.23 70.731 1648.84 67.957C1652.45 65.183 1655.02 61.326 1656.54 56.386L1672.15 60.718C1669.53 68.698 1665.01 75.025 1658.59 79.699C1652.2 84.373 1644.3 86.71 1634.88 86.71ZM1751.85 85H1736.12V30.28L1700.44 85H1684.7V2.91996H1700.44V57.64L1736.12 2.91996H1751.85V85ZM1828.18 85H1812.67V57.184H1793.52L1786.68 56.728C1779.38 55.588 1774.03 52.586 1770.61 47.722C1767.19 42.82 1765.48 36.93 1765.48 30.052C1765.48 25.454 1766.22 21.293 1767.7 17.569C1769.22 13.807 1771.54 10.691 1774.65 8.22096C1777.77 5.75096 1781.78 4.13596 1786.68 3.37596C1787.78 3.18596 1789 3.07196 1790.33 3.03396C1791.66 2.95796 1792.72 2.91996 1793.52 2.91996H1828.18V85ZM1781.89 85H1764.34L1782.12 48.52L1798.08 51.598L1781.89 85ZM1812.67 42.706V17.398H1794.2C1793.41 17.398 1792.53 17.436 1791.58 17.512C1790.63 17.588 1789.76 17.74 1788.96 17.968C1786.87 18.538 1785.25 19.507 1784.11 20.875C1782.97 22.205 1782.18 23.706 1781.72 25.378C1781.3 27.012 1781.09 28.57 1781.09 30.052C1781.09 31.534 1781.3 33.111 1781.72 34.783C1782.18 36.417 1782.97 37.918 1784.11 39.286C1785.25 40.616 1786.87 41.566 1788.96 42.136C1789.76 42.364 1790.63 42.516 1791.58 42.592C1792.53 42.668 1793.41 42.706 1794.2 42.706H1812.67ZM1875.16 58.21C1872.53 58.21 1870.31 57.355 1868.49 55.645C1866.7 53.897 1865.81 51.712 1865.81 49.09C1865.81 46.468 1866.7 44.302 1868.49 42.592C1870.31 40.844 1872.53 39.97 1875.16 39.97C1877.55 39.97 1879.62 40.844 1881.37 42.592C1883.16 44.302 1884.05 46.468 1884.05 49.09C1884.05 51.712 1883.16 53.897 1881.37 55.645C1879.62 57.355 1877.55 58.21 1875.16 58.21ZM1921.72 85V2.91996H1937.23V36.664H1973.93V2.91996H1989.44V85H1973.93V51.142H1937.23V85H1921.72ZM1999.74 85L2024.82 2.91996H2047.96L2073.04 85H2057.08L2034.74 12.61H2037.7L2015.7 85H1999.74ZM2014.79 67.9V53.422H2058.11V67.9H2014.79ZM2083.26 85V2.91996H2098.76V70.522H2122.25V2.91996H2137.75V70.522H2161.24V2.91996H2176.74V85H2083.26ZM2186.99 85L2212.07 2.91996H2235.22L2260.3 85H2244.34L2221.99 12.61H2224.96L2202.95 85H2186.99ZM2202.04 67.9V53.422H2245.36V67.9H2202.04ZM2355.47 98.68V85H2293.34V2.91996H2308.84V71.32H2346.23V5.19996H2361.74V71.32H2370.97V98.68H2355.47ZM2380.06 85V2.91996H2433.64V17.398H2395.56V34.954H2426.8V49.432H2395.56V70.522H2433.64V85H2380.06ZM2441.6 85V72.118C2443.35 72.232 2444.83 72.08 2446.05 71.662C2447.26 71.244 2448.29 70.484 2449.13 69.382C2450 68.242 2450.76 66.684 2451.41 64.708C2452.05 62.694 2452.66 60.186 2453.23 57.184C2454.14 52.434 2454.9 47.437 2455.51 42.193C2456.16 36.911 2456.69 31.743 2457.11 26.689C2457.52 21.635 2457.85 17.037 2458.08 12.895C2458.3 8.71496 2458.47 5.38996 2458.59 2.91996H2514.56V85H2499.06V17.398H2472.84C2472.69 19.526 2472.48 22.3 2472.21 25.72C2471.98 29.14 2471.66 32.921 2471.24 37.063C2470.82 41.205 2470.31 45.499 2469.7 49.945C2469.1 54.391 2468.35 58.704 2467.48 62.884C2466.68 66.95 2465.71 70.56 2464.57 73.714C2463.43 76.83 2461.91 79.395 2460.01 81.409C2458.15 83.385 2455.74 84.696 2452.77 85.342C2449.81 85.988 2446.09 85.874 2441.6 85ZM2530.46 85V2.91996H2545.97V30.736H2565.12C2565.88 30.736 2566.94 30.774 2568.31 30.85C2569.68 30.888 2570.89 31.002 2571.96 31.192C2576.82 31.952 2580.81 33.567 2583.93 36.037C2587.08 38.507 2589.4 41.623 2590.88 45.385C2592.4 49.109 2593.16 53.27 2593.16 57.868C2593.16 62.466 2592.42 66.646 2590.94 70.408C2589.46 74.132 2587.14 77.229 2583.98 79.699C2580.87 82.169 2576.86 83.784 2571.96 84.544C2570.89 84.696 2569.68 84.81 2568.31 84.886C2566.98 84.962 2565.92 85 2565.12 85H2530.46ZM2545.97 70.522H2564.43C2565.23 70.522 2566.11 70.484 2567.06 70.408C2568.01 70.332 2568.88 70.18 2569.68 69.952C2571.77 69.382 2573.38 68.432 2574.52 67.102C2575.66 65.734 2576.44 64.233 2576.86 62.599C2577.32 60.927 2577.54 59.35 2577.54 57.868C2577.54 56.386 2577.32 54.828 2576.86 53.194C2576.44 51.522 2575.66 50.021 2574.52 48.691C2573.38 47.323 2571.77 46.354 2569.68 45.784C2568.88 45.556 2568.01 45.404 2567.06 45.328C2566.11 45.252 2565.23 45.214 2564.43 45.214H2545.97V70.522Z"/>
</mask>
<path d="M1.97998 85V2.91996H17.484V36.664H54.192V2.91996H69.696V85H54.192V51.142H17.484V85H1.97998ZM79.9987 85L105.079 2.91996H128.221L153.301 85H137.341L114.997 12.61H117.961L95.9587 85H79.9987ZM95.0467 67.9V53.422H138.367V67.9H95.0467ZM163.517 85V2.91996H179.021V70.522H202.505V2.91996H218.009V70.522H241.493V2.91996H256.997V85H163.517ZM267.253 85L292.333 2.91996H315.475L340.555 85H324.595L302.251 12.61H305.215L283.213 85H267.253ZM282.301 67.9V53.422H325.621V67.9H282.301ZM373.593 85V2.91996H387.501L414.633 57.412L441.765 2.91996H455.673V85H441.195V35.98L417.369 85H411.897L388.071 35.98V85H373.593ZM538.819 85H523.087V30.28L487.405 85H471.673V2.91996H487.405V57.64L523.087 2.91996H538.819V85ZM589.95 86.71C581.742 86.71 574.655 84.924 568.689 81.352C562.761 77.78 558.182 72.783 554.952 66.361C551.76 59.939 550.164 52.472 550.164 43.96C550.164 35.448 551.76 27.981 554.952 21.559C558.182 15.137 562.761 10.14 568.689 6.56796C574.655 2.99596 581.742 1.20996 589.95 1.20996C599.374 1.20996 607.278 3.54696 613.662 8.22096C620.084 12.895 624.606 19.222 627.228 27.202L611.61 31.534C610.09 26.556 607.525 22.699 603.915 19.963C600.305 17.189 595.65 15.802 589.95 15.802C584.744 15.802 580.393 16.961 576.897 19.279C573.439 21.597 570.836 24.865 569.088 29.083C567.34 33.301 566.466 38.26 566.466 43.96C566.466 49.66 567.34 54.619 569.088 58.837C570.836 63.055 573.439 66.323 576.897 68.641C580.393 70.959 584.744 72.118 589.95 72.118C595.65 72.118 600.305 70.731 603.915 67.957C607.525 65.183 610.09 61.326 611.61 56.386L627.228 60.718C624.606 68.698 620.084 75.025 613.662 79.699C607.278 84.373 599.374 86.71 589.95 86.71ZM675.005 86.71C666.797 86.71 659.71 84.924 653.744 81.352C647.816 77.78 643.237 72.783 640.007 66.361C636.815 59.939 635.219 52.472 635.219 43.96C635.219 35.448 636.815 27.981 640.007 21.559C643.237 15.137 647.816 10.14 653.744 6.56796C659.71 2.99596 666.797 1.20996 675.005 1.20996C684.429 1.20996 692.333 3.54696 698.717 8.22096C705.139 12.895 709.661 19.222 712.283 27.202L696.665 31.534C695.145 26.556 692.58 22.699 688.97 19.963C685.36 17.189 680.705 15.802 675.005 15.802C669.799 15.802 665.448 16.961 661.952 19.279C658.494 21.597 655.891 24.865 654.143 29.083C652.395 33.301 651.521 38.26 651.521 43.96C651.521 49.66 652.395 54.619 654.143 58.837C655.891 63.055 658.494 66.323 661.952 68.641C665.448 70.959 669.799 72.118 675.005 72.118C680.705 72.118 685.36 70.731 688.97 67.957C692.58 65.183 695.145 61.326 696.665 56.386L712.283 60.718C709.661 68.698 705.139 75.025 698.717 79.699C692.333 84.373 684.429 86.71 675.005 86.71ZM791.979 85H776.247V30.28L740.565 85H724.833V2.91996H740.565V57.64L776.247 2.91996H791.979V85ZM868.304 85H852.8V57.184H833.648L826.808 56.728C819.512 55.588 814.154 52.586 810.734 47.722C807.314 42.82 805.604 36.93 805.604 30.052C805.604 25.454 806.345 21.293 807.827 17.569C809.347 13.807 811.665 10.691 814.781 8.22096C817.897 5.75096 821.906 4.13596 826.808 3.37596C827.91 3.18596 829.126 3.07196 830.456 3.03396C831.786 2.95796 832.85 2.91996 833.648 2.91996H868.304V85ZM822.02 85H804.464L822.248 48.52L838.208 51.598L822.02 85ZM852.8 42.706V17.398H834.332C833.534 17.398 832.66 17.436 831.71 17.512C830.76 17.588 829.886 17.74 829.088 17.968C826.998 18.538 825.383 19.507 824.243 20.875C823.103 22.205 822.305 23.706 821.849 25.378C821.431 27.012 821.222 28.57 821.222 30.052C821.222 31.534 821.431 33.111 821.849 34.783C822.305 36.417 823.103 37.918 824.243 39.286C825.383 40.616 826.998 41.566 829.088 42.136C829.886 42.364 830.76 42.516 831.71 42.592C832.66 42.668 833.534 42.706 834.332 42.706H852.8ZM915.286 58.21C912.664 58.21 910.441 57.355 908.617 55.645C906.831 53.897 905.938 51.712 905.938 49.09C905.938 46.468 906.831 44.302 908.617 42.592C910.441 40.844 912.664 39.97 915.286 39.97C917.68 39.97 919.751 40.844 921.499 42.592C923.285 44.302 924.178 46.468 924.178 49.09C924.178 51.712 923.285 53.897 921.499 55.645C919.751 57.355 917.68 58.21 915.286 58.21ZM961.851 85V2.91996H977.355V36.664H1014.06V2.91996H1029.57V85H1014.06V51.142H977.355V85H961.851ZM1039.87 85L1064.95 2.91996H1088.09L1113.17 85H1097.21L1074.87 12.61H1077.83L1055.83 85H1039.87ZM1054.92 67.9V53.422H1098.24V67.9H1054.92ZM1123.39 85V2.91996H1138.89V70.522H1162.38V2.91996H1177.88V70.522H1201.36V2.91996H1216.87V85H1123.39ZM1227.12 85L1252.2 2.91996H1275.35L1300.43 85H1284.47L1262.12 12.61H1265.09L1243.08 85H1227.12ZM1242.17 67.9V53.422H1285.49V67.9H1242.17ZM1333.46 85V2.91996H1347.37L1374.5 57.412L1401.64 2.91996H1415.54V85H1401.07V35.98L1377.24 85H1371.77L1347.94 35.98V85H1333.46ZM1498.69 85H1482.96V30.28L1447.28 85H1431.54V2.91996H1447.28V57.64L1482.96 2.91996H1498.69V85ZM1549.82 86.71C1541.61 86.71 1534.53 84.924 1528.56 81.352C1522.63 77.78 1518.05 72.783 1514.82 66.361C1511.63 59.939 1510.04 52.472 1510.04 43.96C1510.04 35.448 1511.63 27.981 1514.82 21.559C1518.05 15.137 1522.63 10.14 1528.56 6.56796C1534.53 2.99596 1541.61 1.20996 1549.82 1.20996C1559.25 1.20996 1567.15 3.54696 1573.53 8.22096C1579.96 12.895 1584.48 19.222 1587.1 27.202L1571.48 31.534C1569.96 26.556 1567.4 22.699 1563.79 19.963C1560.18 17.189 1555.52 15.802 1549.82 15.802C1544.62 15.802 1540.26 16.961 1536.77 19.279C1533.31 21.597 1530.71 24.865 1528.96 29.083C1527.21 33.301 1526.34 38.26 1526.34 43.96C1526.34 49.66 1527.21 54.619 1528.96 58.837C1530.71 63.055 1533.31 66.323 1536.77 68.641C1540.26 70.959 1544.62 72.118 1549.82 72.118C1555.52 72.118 1560.18 70.731 1563.79 67.957C1567.4 65.183 1569.96 61.326 1571.48 56.386L1587.1 60.718C1584.48 68.698 1579.96 75.025 1573.53 79.699C1567.15 84.373 1559.25 86.71 1549.82 86.71ZM1634.88 86.71C1626.67 86.71 1619.58 84.924 1613.61 81.352C1607.69 77.78 1603.11 72.783 1599.88 66.361C1596.69 59.939 1595.09 52.472 1595.09 43.96C1595.09 35.448 1596.69 27.981 1599.88 21.559C1603.11 15.137 1607.69 10.14 1613.61 6.56796C1619.58 2.99596 1626.67 1.20996 1634.88 1.20996C1644.3 1.20996 1652.2 3.54696 1658.59 8.22096C1665.01 12.895 1669.53 19.222 1672.15 27.202L1656.54 31.534C1655.02 26.556 1652.45 22.699 1648.84 19.963C1645.23 17.189 1640.58 15.802 1634.88 15.802C1629.67 15.802 1625.32 16.961 1621.82 19.279C1618.36 21.597 1615.76 24.865 1614.01 29.083C1612.27 33.301 1611.39 38.26 1611.39 43.96C1611.39 49.66 1612.27 54.619 1614.01 58.837C1615.76 63.055 1618.36 66.323 1621.82 68.641C1625.32 70.959 1629.67 72.118 1634.88 72.118C1640.58 72.118 1645.23 70.731 1648.84 67.957C1652.45 65.183 1655.02 61.326 1656.54 56.386L1672.15 60.718C1669.53 68.698 1665.01 75.025 1658.59 79.699C1652.2 84.373 1644.3 86.71 1634.88 86.71ZM1751.85 85H1736.12V30.28L1700.44 85H1684.7V2.91996H1700.44V57.64L1736.12 2.91996H1751.85V85ZM1828.18 85H1812.67V57.184H1793.52L1786.68 56.728C1779.38 55.588 1774.03 52.586 1770.61 47.722C1767.19 42.82 1765.48 36.93 1765.48 30.052C1765.48 25.454 1766.22 21.293 1767.7 17.569C1769.22 13.807 1771.54 10.691 1774.65 8.22096C1777.77 5.75096 1781.78 4.13596 1786.68 3.37596C1787.78 3.18596 1789 3.07196 1790.33 3.03396C1791.66 2.95796 1792.72 2.91996 1793.52 2.91996H1828.18V85ZM1781.89 85H1764.34L1782.12 48.52L1798.08 51.598L1781.89 85ZM1812.67 42.706V17.398H1794.2C1793.41 17.398 1792.53 17.436 1791.58 17.512C1790.63 17.588 1789.76 17.74 1788.96 17.968C1786.87 18.538 1785.25 19.507 1784.11 20.875C1782.97 22.205 1782.18 23.706 1781.72 25.378C1781.3 27.012 1781.09 28.57 1781.09 30.052C1781.09 31.534 1781.3 33.111 1781.72 34.783C1782.18 36.417 1782.97 37.918 1784.11 39.286C1785.25 40.616 1786.87 41.566 1788.96 42.136C1789.76 42.364 1790.63 42.516 1791.58 42.592C1792.53 42.668 1793.41 42.706 1794.2 42.706H1812.67ZM1875.16 58.21C1872.53 58.21 1870.31 57.355 1868.49 55.645C1866.7 53.897 1865.81 51.712 1865.81 49.09C1865.81 46.468 1866.7 44.302 1868.49 42.592C1870.31 40.844 1872.53 39.97 1875.16 39.97C1877.55 39.97 1879.62 40.844 1881.37 42.592C1883.16 44.302 1884.05 46.468 1884.05 49.09C1884.05 51.712 1883.16 53.897 1881.37 55.645C1879.62 57.355 1877.55 58.21 1875.16 58.21ZM1921.72 85V2.91996H1937.23V36.664H1973.93V2.91996H1989.44V85H1973.93V51.142H1937.23V85H1921.72ZM1999.74 85L2024.82 2.91996H2047.96L2073.04 85H2057.08L2034.74 12.61H2037.7L2015.7 85H1999.74ZM2014.79 67.9V53.422H2058.11V67.9H2014.79ZM2083.26 85V2.91996H2098.76V70.522H2122.25V2.91996H2137.75V70.522H2161.24V2.91996H2176.74V85H2083.26ZM2186.99 85L2212.07 2.91996H2235.22L2260.3 85H2244.34L2221.99 12.61H2224.96L2202.95 85H2186.99ZM2202.04 67.9V53.422H2245.36V67.9H2202.04ZM2355.47 98.68V85H2293.34V2.91996H2308.84V71.32H2346.23V5.19996H2361.74V71.32H2370.97V98.68H2355.47ZM2380.06 85V2.91996H2433.64V17.398H2395.56V34.954H2426.8V49.432H2395.56V70.522H2433.64V85H2380.06ZM2441.6 85V72.118C2443.35 72.232 2444.83 72.08 2446.05 71.662C2447.26 71.244 2448.29 70.484 2449.13 69.382C2450 68.242 2450.76 66.684 2451.41 64.708C2452.05 62.694 2452.66 60.186 2453.23 57.184C2454.14 52.434 2454.9 47.437 2455.51 42.193C2456.16 36.911 2456.69 31.743 2457.11 26.689C2457.52 21.635 2457.85 17.037 2458.08 12.895C2458.3 8.71496 2458.47 5.38996 2458.59 2.91996H2514.56V85H2499.06V17.398H2472.84C2472.69 19.526 2472.48 22.3 2472.21 25.72C2471.98 29.14 2471.66 32.921 2471.24 37.063C2470.82 41.205 2470.31 45.499 2469.7 49.945C2469.1 54.391 2468.35 58.704 2467.48 62.884C2466.68 66.95 2465.71 70.56 2464.57 73.714C2463.43 76.83 2461.91 79.395 2460.01 81.409C2458.15 83.385 2455.74 84.696 2452.77 85.342C2449.81 85.988 2446.09 85.874 2441.6 85ZM2530.46 85V2.91996H2545.97V30.736H2565.12C2565.88 30.736 2566.94 30.774 2568.31 30.85C2569.68 30.888 2570.89 31.002 2571.96 31.192C2576.82 31.952 2580.81 33.567 2583.93 36.037C2587.08 38.507 2589.4 41.623 2590.88 45.385C2592.4 49.109 2593.16 53.27 2593.16 57.868C2593.16 62.466 2592.42 66.646 2590.94 70.408C2589.46 74.132 2587.14 77.229 2583.98 79.699C2580.87 82.169 2576.86 83.784 2571.96 84.544C2570.89 84.696 2569.68 84.81 2568.31 84.886C2566.98 84.962 2565.92 85 2565.12 85H2530.46ZM2545.97 70.522H2564.43C2565.23 70.522 2566.11 70.484 2567.06 70.408C2568.01 70.332 2568.88 70.18 2569.68 69.952C2571.77 69.382 2573.38 68.432 2574.52 67.102C2575.66 65.734 2576.44 64.233 2576.86 62.599C2577.32 60.927 2577.54 59.35 2577.54 57.868C2577.54 56.386 2577.32 54.828 2576.86 53.194C2576.44 51.522 2575.66 50.021 2574.52 48.691C2573.38 47.323 2571.77 46.354 2569.68 45.784C2568.88 45.556 2568.01 45.404 2567.06 45.328C2566.11 45.252 2565.23 45.214 2564.43 45.214H2545.97V70.522Z" stroke="white" stroke-opacity="0.31" stroke-width="2" mask="url(#path-1-outside-1_733_1818)"/>
</svg>
