<svg width="803" height="271" viewBox="0 0 803 271" fill="none" xmlns="http://www.w3.org/2000/svg">
<g clip-path="url(#clip0_425_1644)">
<path d="M57.14 42.96H78.5V204.07H55.08L21.11 87.74V204.07H-0.25V42.96H24.2L57.14 155.94V42.96Z" fill="#171B2E"/>
<path d="M140.13 185.28H186.71V204.07H116.71V42.96H184.91V61.75H140.13V111.42H177.19V130.21H140.13V185.28Z" fill="#171B2E"/>
<path d="M279.35 42.96H302.77V181.42C302.77 196.52 294.7 204.07 278.58 204.07H250.01C233.88 204.07 225.82 196.52 225.82 181.42V42.96H249.24V177.82C249.24 180.91 249.76 182.93 250.78 183.87C251.81 184.81 253.87 185.29 256.96 185.29H271.63C274.89 185.29 276.99 184.82 277.94 183.87C278.88 182.93 279.35 180.91 279.35 177.82V42.96V42.96Z" fill="#171B2E"/>
<path d="M415.49 42.9599V61.7499H388.47V204.07H365.31V61.7399H338.29V42.95H415.49V42.9599Z" fill="#171B2E"/>
<path d="M470.17 138.95V204.06H447.01V42.96H499.77C515.73 42.96 523.7 50.51 523.7 65.61V116.05C523.7 129.09 517.95 136.55 506.45 138.44L531.93 204.07H506.97L482.78 138.96H470.17V138.95ZM470.17 61.74V120.42H492.82C495.91 120.42 497.97 119.95 499 119C500.03 118.06 500.54 116.04 500.54 112.95V69.2C500.54 66.11 500.02 64.1 499 63.15C497.97 62.21 495.91 61.73 492.82 61.73H470.17V61.74Z" fill="#171B2E"/>
<path d="M781.61 42.96H802.97V204.07H779.55L745.58 87.74V204.07H724.22V42.96H748.67L781.61 155.94V42.96V42.96Z" fill="#171B2E"/>
<path d="M613.99 149.46C623.13 164.41 614.01 184.2 596.86 187.48C579.47 190.94 563.42 175.67 566.16 158.11C567.67 147.09 576.91 137.7 587.95 136.2L588.44 136.13C588.5 136.22 588.72 136.51 588.77 136.59C589.94 137.83 592.74 140.87 594.14 142.36C594.35 142.59 594.6 142.83 594.75 143.14C593.66 147.21 591.54 150.99 588.69 154.05L588.64 153.28L592.12 156.25L591.73 156.15L607.08 153L606.98 153.13V153.11C607.83 151.78 608.92 150.56 610.03 149.42C609.04 150.49 607.87 152.15 607.24 153.12V153.22L607.13 153.25L591.92 157.05L591.71 157.1C590.44 156.11 589.19 155.1 587.94 154.09L587.52 153.75L587.9 153.33C590.51 150.39 592.4 146.84 593.35 143.05L593.4 143.54C593.39 143.57 593.46 143.66 593.43 143.62C592.63 142.78 591.36 141.51 590.55 140.67L587.57 137.62L587.54 137.59L587.51 137.54L587.45 137.46L588.21 137.77C583.13 138.66 578.35 141.11 574.77 144.82C560.85 158.94 569.21 183.41 588.89 186C609.03 188.78 623.51 167.32 613.99 149.46Z" fill="#171B2E"/>
<path d="M582.95 115.25L582.62 118.78C582.66 117.59 582.77 116.42 582.95 115.25Z" fill="#004661"/>
<path d="M594 143.22C592.94 147.17 590.95 150.74 588.28 153.68C586.38 155.73 584.21 157.46 581.75 158.79C581.73 158.81 581.73 158.81 581.73 158.81C578.14 160.77 574.01 161.88 569.66 161.88C568.89 161.88 568.16 161.84 567.43 161.76C567.41 161.76 567.41 161.76 567.41 161.76C567.22 161.76 567.03 161.74 566.83 161.7C554.24 160.32 544.45 149.63 544.45 136.67C544.45 130.62 546.58 125.08 550.13 120.74C553.7 116.36 558.73 113.22 564.47 112.01C568.96 116.23 575.03 118.81 581.67 118.81C582 118.81 582.3 118.81 582.61 118.79C582.59 119.14 582.59 119.46 582.59 119.81C582.59 126.2 584.61 132.13 588.06 136.99L594 143.22Z" fill="#171B2E"/>
<path d="M665.12 77.67C665.12 81.7 664.19 85.89 662.24 89.39C660.52 89.28 658.72 89.43 657.02 89.68C649.15 90.92 642.09 96.2 638.73 103.36C638.55 103.37 638.18 103.32 638 103.32L637.81 103.31L637.66 103.09C633.96 97.23 626.56 92.56 620.79 91.17H620.77H620.7L620.54 91.14L617.6 90.56C617.6 90.56 617.79 90.57 617.72 90.57L617.17 90.58L616.89 90.08C613.54 84.06 612.81 76.67 614.85 70.09C618.45 58.51 629.31 51.4 640.63 51.99C654.04 52.37 665.31 64.29 665.12 77.67ZM665.12 77.67C665.17 64.86 654.98 53.88 642.19 53.01C637.44 52.7 632.59 53.69 628.48 56.03L628.13 56.12C628.1 56.13 628.38 56.11 628.54 55.98C628.69 55.86 628.71 55.79 628.73 55.75L628.42 56.07C625.63 57.65 623.14 59.74 621.12 62.23C615.03 69.69 613.95 80.7 618.53 89.18L617.7 88.69C617.74 88.69 617.82 88.69 617.86 88.7C625.89 89.96 633.89 94.95 638.53 102.5L638.19 102.27C638.26 102.27 638.32 102.28 638.39 102.28L637.92 102.56C641.72 95.4 649.07 90.52 656.96 89.45C658.68 89.24 660.5 89.13 662.23 89.28C663.97 85.94 665.18 81.66 665.12 77.67Z" fill="#171B2E"/>
<path d="M629.11 55.0899C628.48 55.4399 627.86 55.8 627.27 56.2C627.25 56.2 627.23 56.1999 627.21 56.2399C620.36 60.7099 615.81 68.4699 615.81 77.2999C615.81 82.3899 617.31 87.1299 619.9 91.0799C618.9 90.8099 617.9 90.6 616.87 90.45C616.85 90.45 616.85 90.45 616.85 90.45C615.37 90.22 613.86 90.0999 612.32 90.0999C610.4 90.0999 608.54 90.27 606.72 90.64C605.49 80.08 597.74 71.5199 587.58 69.0799C589.81 57.4699 600.04 48.6799 612.32 48.6799C618.78 48.6799 624.66 51.0999 629.11 55.0899Z" fill="#171B2E"/>
<path d="M606.71 90.64C593.19 93.56 583.42 105.75 583.33 119.52C567.31 120.94 553.32 106.16 555.72 90.24C557.24 77.45 568.93 67.28 581.82 67.67C594.44 67.68 605.81 78.06 606.71 90.64ZM606.71 90.64C603.5 69.5 577.2 61.57 563.22 77.81C553.55 88.83 556.5 107.02 569.15 114.43C573.14 116.89 577.9 118.1 582.58 118.01L581.85 118.76C582.33 105.02 593.03 92.64 606.71 90.64Z" fill="#171B2E"/>
<path d="M582.95 115.25L582.62 118.78C582.66 117.59 582.77 116.42 582.95 115.25Z" fill="white"/>
<path d="M582.95 115.25C582.84 116.39 583.12 117.61 583.12 118.83L582.12 118.77C582.33 117.56 582.86 116.4 582.95 115.25ZM582.95 115.25C582.78 116.47 583.04 117.66 583.12 118.8L582.12 118.74C582.42 117.63 582.87 116.48 582.95 115.25Z" fill="#004757"/>
<path d="M582.95 115.25L582.62 118.78C582.66 117.59 582.77 116.42 582.95 115.25Z" fill="white"/>
<path d="M582.95 115.25C582.84 116.39 583.12 117.61 583.12 118.83L582.12 118.77C582.33 117.56 582.86 116.4 582.95 115.25ZM582.95 115.25C582.78 116.47 583.04 117.66 583.12 118.8L582.12 118.74C582.42 117.63 582.87 116.48 582.95 115.25Z" fill="#004757"/>
<path d="M610.01 149.42C610.78 149.48 611.55 149.52 612.33 149.52C612.89 149.52 613.42 149.5 613.98 149.46" fill="white"/>
<path d="M610.01 149.42C611.34 148.8 612.7 148.86 613.98 149.46C612.76 150.22 611.26 150.17 610.01 149.42Z" fill="#004757"/>
<path d="M696.59 99.09C696.59 108.21 691.75 116.19 684.52 120.63C684.9 118.92 685.1 117.14 685.1 115.31C685.1 101.89 674.62 90.93 661.39 90.16C660.89 90.12 660.37 90.1 659.87 90.1C655.07 90.1 650.58 91.44 646.76 93.77C648.68 84.81 655.36 77.63 664.02 74.98C666.34 74.27 668.82 73.89 671.39 73.89C685.3 73.89 696.59 85.17 696.59 99.09Z" fill="#171B2E"/>
<path d="M641.41 132.45C625.22 145.13 626.6 171.08 646.31 180.8C672.27 192.6 696.82 164.44 682.38 140.09C680.92 137.8 679.1 135.59 677.09 133.74C679.28 135.45 681.16 137.55 682.8 139.82C699.39 165.11 672.74 195.31 645.47 182.55C624.82 172.21 623.68 144.66 641.41 132.45Z" fill="#171B2E"/>
<path d="M609.95 149.44C608.88 150.57 607.92 151.8 607.03 153.13V153.15C604.65 156.72 603.08 160.89 602.58 165.36C602.45 166.42 602.39 167.47 602.39 168.57C602.39 173.73 603.79 178.57 606.23 182.74C611.09 191.05 620.11 196.62 630.42 196.62C634.11 196.62 637.62 195.91 640.82 194.6C647 192.16 652.09 187.56 655.18 181.72C657.29 177.8 658.46 173.31 658.46 168.57C658.46 157.97 652.59 148.76 643.91 143.98C640.72 142.25 637.17 141.1 633.41 140.72C633.35 140.7 633.29 140.7 633.26 140.7C633.2 140.82 633.16 140.91 633.11 141.03V141.05H633.09C632.78 141.36 632.46 141.65 632.13 141.95C632.11 141.97 632.09 141.99 632.07 142.01C631.11 142.85 630.09 143.64 629.04 144.37C628.68 144.62 628.31 144.87 627.93 145.1C627.57 145.33 627.18 145.54 626.8 145.77C626.42 145.98 626.03 146.19 625.63 146.38C625.28 146.55 624.94 146.73 624.59 146.88C624.03 147.15 623.48 147.38 622.9 147.59C622.59 147.71 622.27 147.82 621.94 147.94C621.52 148.07 621.1 148.21 620.67 148.34C620.23 148.46 619.79 148.57 619.36 148.69C617.59 149.11 615.79 149.4 613.93 149.5L609.95 149.44Z" fill="#171B2E"/>
<path d="M685.1 115.33C685.21 130.96 671.04 142.58 656.87 140.91C639.05 139.29 628.37 119.74 636.42 103.8C649.08 79.77 684.59 88.23 685.1 115.33ZM685.1 115.33C685.04 93.85 659.37 82.65 643.61 97.23C628.36 111.32 636.49 137.04 657.05 139.82C671.67 141.96 685.24 130.11 685.1 115.33Z" fill="#171B2E"/>
<path d="M639.91 130.76C631.07 154.53 598.35 156.93 585.71 135.05C569.96 106.57 601.99 77.03 628.92 94.38C632.59 96.86 635.68 100.1 637.99 103.88C633.36 112.22 634.14 123.11 639.91 130.76ZM639.91 130.76C635.28 125.23 633.38 117.63 634.61 110.53C635 108.14 635.78 105.82 636.87 103.65L636.89 104.19C632.46 97.21 624.49 92.39 616.83 91.31C599.94 88.61 584.21 101.61 583.56 118.67C582.96 129.52 589.11 140.25 598.7 145.34C613.74 153.73 633.32 146.65 639.91 130.76Z" fill="#171B2E"/>
<path d="M696.03 82.98C713.04 79.94 730.05 76.77 747.27 74.97C760.21 73.66 773.28 72.35 786.32 73.75C793.79 74.46 804.26 78.05 796.66 87.06C792.09 92.05 786.15 95.34 780.38 98.57C772.7 102.72 764.77 106.3 756.78 109.67C740.79 116.42 724.45 122.18 708.02 127.62L709.6 125.46C709.61 126.63 708.56 127.78 707.34 127.75L708.01 127.64L692.05 132.65C680.69 136.34 669.82 139.31 657.95 142.7L657.65 142.79H657.31H657.29L659.01 142.08C658.61 142.51 657.84 142.83 657.26 142.81L657.91 142.72C646.27 145.89 631.95 149.69 620.29 152.52C616.1 153.56 611.88 154.53 607.68 155.52C607.68 155.53 609.63 153.04 609.61 153.12V155.11C608.7 155.31 596.28 158.13 595 158.41C590.78 159.36 586.53 160.25 582.29 161.18L583.52 160.52L583.5 160.54L582.98 161.06L582.28 161.2L567.94 164.14C541.94 169.26 505.28 175.67 475.13 177.24C467.33 177.62 459.47 177.82 451.65 177.09C447.65 176.66 443.51 176.14 439.76 174.34C430.09 169.15 439.44 161.06 445.27 157.4C456.24 150.35 468.36 145.34 480.37 140.57C499.64 133.11 519.42 126.67 539.17 120.99C514.74 129.25 490.38 137.79 467.07 148.79C458.06 153.25 448.53 157.6 441.24 164.6C440.42 165.46 439.71 166.39 439.27 167.3C438.84 168.23 438.81 168.96 439.13 169.55C440.19 171.1 442.62 171.93 444.6 172.4C449.43 173.54 454.56 173.74 459.56 173.8C495.09 173.41 534.01 165.78 566.98 159.4L581.24 156.43L580.02 157.09L580.04 157.07L580.54 156.57L581.27 156.41C588.54 154.87 599.18 152.41 606.55 150.72L604.62 153.14C604.61 153.13 604.63 151.17 604.62 151.16L606.55 150.7C622.56 146.94 640.71 142.37 656.59 138.05L657.24 137.96C656.68 137.93 655.94 138.24 655.56 138.65L657.28 137.94H657.3L656.66 138.03L674.55 133L675.23 132.9C674.92 132.88 674.58 132.97 674.31 133.12L674.73 132.96C683.9 130.31 697.36 126.1 706.6 123.34L707.27 123.23C706.11 123.19 704.99 124.34 705.05 125.48L706.63 123.32C731.12 115.32 755.72 107.09 778.71 95.45C783.37 92.89 796.93 85.92 796.07 80.75C791.73 73.14 756.37 76.14 747.45 76.73C730.21 78 713.14 80.69 696.03 82.98Z" fill="#829FD3"/>
<path d="M521.53 127.84H474.29V138.97H482.79L489.01 155.69H513.16L506.46 138.45C513.87 137.25 518.9 133.7 521.53 127.84Z" fill="#171B2E"/>
<path d="M748.67 42.96H724.22V85.15H760.98L748.67 42.96Z" fill="#171B2E"/>
<path d="M532.16 25.04C531.91 25.55 531.65 26.05 531.35 26.52C547.32 35.45 562.88 45.28 578.1 55.32C568.03 48.23 550.73 36.16 532.16 25.04Z" fill="#829FD3"/>
<path d="M541 108.71L541.01 108.72C540.98 108.7 540.95 108.67 540.9 108.63C540.91 108.64 540.92 108.65 540.93 108.65C540.97 108.68 540.98 108.69 541 108.71Z" fill="#829FD3"/>
<path d="M656.17 138.13L656.35 138.07L657.43 137.83L658.12 138.03L656.48 139.29L654.01 139.34L655.31 138.4L656.17 138.13Z" fill="#829FD3"/>
<path d="M703.18 128.29L702.69 125.3L706.09 123.47L707.29 123.1L707.55 123.06" fill="#829FD3"/>
<path d="M500.54 109.53V112.88C500.54 115.97 500.02 117.99 499 118.93C497.97 119.88 495.91 120.35 492.82 120.35H470.17V109.54H447.01V141.23H470.17V138.88H482.78L483.65 141.23H507.56L506.45 138.37C517.94 136.48 523.7 129.02 523.7 115.98V109.54H500.54V109.53Z" fill="#171B2E"/>
<path d="M718.07 242.1C716.97 241.49 716.06 240.98 715.39 240.61C695.32 229.36 676.05 216.65 657.18 203.43L656.56 203H656.55C655.59 202.32 651.84 199.65 651.84 199.65L651.16 199.17H651.15C641.63 192.42 632.41 185.27 623.08 178.27C613.8 171.35 603.96 163.39 594.99 156.16C581.62 145.25 567.14 132.88 554.21 121.3C549.78 117.37 545.35 113.26 541.02 109.25H541.01C541.05 109.29 541.05 109.29 541 109.24C540.96 109.22 539.38 108.59 539.38 108.59C539.97 108.51 540.62 108.94 540.91 109.16C540.04 108.34 538.84 107.24 537.96 106.4C522.81 92.17 507.95 77.35 494.22 61.75C486.3 52.89 438.75 -1.99003 474.76 3.20997C484.56 4.92997 493.9 8.43998 502.99 12.59C503.31 11.81 503.68 11.06 504.11 10.36C489.37 3.37996 475.75 -1.09002 466.36 0.0599763C448.31 4.14998 464.38 28.9 470.36 37.95C489.09 65.1 512.52 88.54 536.21 111.32L536.96 112.03L537.33 112.38L537.52 112.56L537.61 112.65L537.66 112.69C537.53 112.58 537.62 112.69 537.85 112.85C572.91 145.67 610.53 176.16 649.61 204.02H649.63L654.41 207.4L655.02 207.83C655.02 207.83 655.05 207.83 655.06 207.83C678.9 224.36 699.49 237.05 716.72 246.25C717.01 244.81 717.46 243.42 718.07 242.1Z" fill="#829FD3"/>
<path d="M696.97 151.37C719.63 173.52 769.39 222.37 777.17 251.4C779.74 263.9 768.29 263.41 754.46 258.84C753.95 259.95 753.32 261.02 752.59 262.04C802.25 277.46 787.4 232.53 696.97 151.37Z" fill="#829FD3"/>
<path d="M722.49 235.4C731.48 226.69 746.1 228.68 752.77 237.62C763.88 251.79 752.51 272.41 734.62 270.73C717.2 269 709.78 247.46 722.49 235.4ZM722.49 235.4C710.17 247.11 717.8 268.05 734.75 269.05C751 270.07 761.31 251.6 751.9 238.31C745.26 228.66 730.89 227.24 722.49 235.4Z" fill="#171B2E"/>
<path d="M533.57 19.97C532.67 29.76 522.93 36.27 514.23 34.46C502.98 32.58 496.88 19.18 503.34 9.26996C513.01 -5.12004 535.13 2.73997 533.57 19.97ZM533.57 19.97C535.01 6.55997 519.47 -2.18005 508.8 6.04995C498.53 13.81 501.89 30.22 514.35 33.38C523.34 35.74 532.69 29.25 533.57 19.97Z" fill="#171B2E"/>
</g>
<defs>
<clipPath id="clip0_425_1644">
<rect width="803" height="271" fill="white"/>
</clipPath>
</defs>
</svg>
