<svg width="106" height="79" viewBox="0 0 106 79" fill="none" xmlns="http://www.w3.org/2000/svg">
<path d="M52.4154 43.2907C55.0554 47.6088 52.4212 53.3249 47.4676 54.2723C42.4448 55.2717 37.8089 50.8611 38.6003 45.7891C39.0365 42.6061 41.7053 39.894 44.8941 39.4607L45.0356 39.4405C45.053 39.4665 45.1165 39.5502 45.131 39.5734C45.4689 39.9315 46.2776 40.8096 46.682 41.2399C46.7427 41.3064 46.8149 41.3757 46.8582 41.4652C46.5434 42.6408 45.931 43.7326 45.1078 44.6165L45.0934 44.3941L46.0986 45.2519L45.9859 45.223L50.4196 44.3132L50.3907 44.3507V44.3449C50.6362 43.9608 50.951 43.6084 51.2716 43.2791C50.9857 43.5882 50.6477 44.0677 50.4658 44.3478V44.3767L50.434 44.3854L46.0408 45.483L45.9801 45.4974C45.6133 45.2115 45.2523 44.9197 44.8912 44.628L44.7699 44.5298L44.8797 44.4085C45.6335 43.5593 46.1794 42.5339 46.4538 41.4392L46.4683 41.5808C46.4654 41.5894 46.4856 41.6154 46.4769 41.6039C46.2459 41.3613 45.879 40.9944 45.6451 40.7518L44.7844 39.8709L44.7757 39.8622L44.767 39.8478L44.7497 39.8246L44.9692 39.9142C43.5019 40.1712 42.1213 40.8789 41.0872 41.9505C37.0666 46.0289 39.4813 53.0967 45.1656 53.8448C50.9828 54.6478 55.1652 48.4493 52.4154 43.2907Z" fill="#171B2E"/>
<path d="M43.4499 33.4096L43.3546 34.4292C43.3662 34.0855 43.3979 33.7475 43.4499 33.4096Z" fill="#004661"/>
<path d="M46.6417 41.4883C46.3355 42.6292 45.7607 43.6604 44.9895 44.5095C44.4407 45.1017 43.8139 45.6013 43.1034 45.9855C43.0976 45.9913 43.0976 45.9913 43.0976 45.9913C42.0607 46.5574 40.8678 46.878 39.6114 46.878C39.3889 46.878 39.1781 46.8665 38.9673 46.8434C38.9615 46.8434 38.9615 46.8434 38.9615 46.8434C38.9066 46.8434 38.8517 46.8376 38.794 46.826C35.1575 46.4274 32.3298 43.3398 32.3298 39.5964C32.3298 37.849 32.945 36.2488 33.9704 34.9952C35.0015 33.7301 36.4544 32.8232 38.1123 32.4737C39.4092 33.6926 41.1624 34.4378 43.0803 34.4378C43.1756 34.4378 43.2623 34.4378 43.3518 34.432C43.346 34.5331 43.346 34.6255 43.346 34.7266C43.346 36.5723 43.9295 38.2851 44.926 39.6888L46.6417 41.4883Z" fill="#171B2E"/>
<path d="M67.1838 22.5551C67.1838 23.7191 66.9152 24.9293 66.352 25.9402C65.8552 25.9085 65.3353 25.9518 64.8442 26.024C62.5711 26.3822 60.5319 27.9072 59.5614 29.9753C59.5094 29.9782 59.4025 29.9637 59.3505 29.9637L59.2957 29.9609L59.2523 29.8973C58.1836 28.2047 56.0462 26.8559 54.3796 26.4544H54.3739H54.3537L54.3074 26.4457L53.4583 26.2782C53.4583 26.2782 53.5131 26.2811 53.4929 26.2811L53.3341 26.284L53.2532 26.1395C52.2856 24.4007 52.0747 22.2662 52.664 20.3657C53.7038 17.0209 56.8406 14.9673 60.1102 15.1377C63.9835 15.2475 67.2387 18.6904 67.1838 22.5551ZM67.1838 22.5551C67.1983 18.8551 64.255 15.6836 60.5608 15.4323C59.1888 15.3428 57.7879 15.6287 56.6008 16.3046L56.4997 16.3306C56.4911 16.3335 56.5719 16.3277 56.6181 16.2902C56.6615 16.2555 56.6672 16.2353 56.673 16.2237L56.5835 16.3162C55.7776 16.7725 55.0584 17.3762 54.475 18.0954C52.716 20.2501 52.404 23.4302 53.7269 25.8796L53.4872 25.7381C53.4987 25.7381 53.5218 25.7381 53.5334 25.7409C55.8527 26.1049 58.1634 27.5462 59.5036 29.7269L59.4054 29.6605C59.4256 29.6605 59.443 29.6634 59.4632 29.6634L59.3274 29.7442C60.425 27.6761 62.548 26.2666 64.8269 25.9576C65.3237 25.8969 65.8494 25.8651 66.3491 25.9085C66.8516 24.9437 67.2011 23.7075 67.1838 22.5551Z" fill="#171B2E"/>
<path d="M56.7827 16.0332C56.6007 16.1342 56.4217 16.2382 56.2513 16.3538C56.2455 16.3538 56.2397 16.3538 56.2339 16.3653C54.2554 17.6564 52.9412 19.8978 52.9412 22.4482C52.9412 23.9184 53.3744 25.2875 54.1225 26.4284C53.8337 26.3504 53.5448 26.2898 53.2473 26.2464C53.2416 26.2464 53.2416 26.2464 53.2416 26.2464C52.8141 26.18 52.3779 26.1454 51.9331 26.1454C51.3786 26.1454 50.8413 26.1945 50.3156 26.3013C49.9604 23.2512 47.7219 20.7787 44.7873 20.074C45.4314 16.7206 48.3862 14.1817 51.9331 14.1817C53.799 14.1817 55.4974 14.8807 56.7827 16.0332Z" fill="#171B2E"/>
<path d="M50.3128 26.3014C46.4077 27.1448 43.5858 30.6658 43.5598 34.643C38.9326 35.0532 34.8918 30.7842 35.585 26.1859C36.024 22.4917 39.4005 19.5542 43.1237 19.6668C46.7688 19.6697 50.0529 22.6679 50.3128 26.3014ZM50.3128 26.3014C49.3857 20.1954 41.7892 17.9049 37.7513 22.5956C34.9582 25.7786 35.8103 31.0326 39.4641 33.1729C40.6165 33.8834 41.9914 34.2329 43.3432 34.2069L43.1323 34.4235C43.2709 30.4549 46.3615 26.8791 50.3128 26.3014Z" fill="#171B2E"/>
<path d="M43.45 33.4096L43.3547 34.4292C43.3662 34.0855 43.398 33.7475 43.45 33.4096Z" fill="white"/>
<path d="M43.4501 33.4096C43.4183 33.7389 43.4992 34.0912 43.4992 34.4436L43.2103 34.4263C43.271 34.0768 43.4241 33.7417 43.4501 33.4096ZM43.4501 33.4096C43.401 33.762 43.4761 34.1057 43.4992 34.4349L43.2103 34.4176C43.297 34.097 43.427 33.7648 43.4501 33.4096Z" fill="#004757"/>
<path d="M43.45 33.4096L43.3547 34.4292C43.3662 34.0855 43.398 33.7475 43.45 33.4096Z" fill="white"/>
<path d="M43.4501 33.4096C43.4183 33.7389 43.4992 34.0912 43.4992 34.4436L43.2103 34.4263C43.271 34.0768 43.4241 33.7417 43.4501 33.4096ZM43.4501 33.4096C43.401 33.762 43.4761 34.1057 43.4992 34.4349L43.2103 34.4176C43.297 34.097 43.427 33.7648 43.4501 33.4096Z" fill="#004757"/>
<path d="M51.266 43.2791C51.4884 43.2964 51.7108 43.3079 51.9361 43.3079C52.0978 43.3079 52.2509 43.3022 52.4127 43.2906" fill="white"/>
<path d="M51.2659 43.2792C51.65 43.1001 52.0428 43.1174 52.4125 43.2907C52.0602 43.5103 51.6269 43.4958 51.2659 43.2792Z" fill="#004757"/>
<path d="M76.2735 28.742C76.2735 31.3762 74.8755 33.6811 72.7872 34.9636C72.897 34.4697 72.9548 33.9555 72.9548 33.427C72.9548 29.5508 69.9277 26.3851 66.1064 26.1627C65.962 26.1511 65.8118 26.1454 65.6674 26.1454C64.281 26.1454 62.9841 26.5324 61.8807 27.2054C62.4353 24.6174 64.3647 22.5436 66.8661 21.7781C67.5362 21.5731 68.2525 21.4633 68.9948 21.4633C73.0125 21.4633 76.2735 24.7214 76.2735 28.742Z" fill="#171B2E"/>
<path d="M60.3356 38.3776C55.6593 42.04 56.0579 49.5353 61.7509 52.3428C69.2491 55.7511 76.3401 47.6175 72.1692 40.5843C71.7475 39.9228 71.2219 39.2845 70.6413 38.7502C71.2739 39.2441 71.8169 39.8506 72.2905 40.5063C77.0824 47.811 69.3848 56.5339 61.5082 52.8483C55.5438 49.8617 55.2145 41.9043 60.3356 38.3776Z" fill="#171B2E"/>
<path d="M51.2487 43.285C50.9396 43.6114 50.6623 43.9667 50.4053 44.3508V44.3566C49.7178 45.3877 49.2644 46.5922 49.1199 47.8833C49.0824 48.1895 49.0651 48.4927 49.0651 48.8105C49.0651 50.3009 49.4694 51.6988 50.1742 52.9033C51.5779 55.3035 54.1833 56.9123 57.1612 56.9123C58.227 56.9123 59.2408 56.7073 60.1651 56.3289C61.9501 55.6241 63.4203 54.2955 64.3128 52.6087C64.9222 51.4764 65.2602 50.1795 65.2602 48.8105C65.2602 45.7488 63.5647 43.0886 61.0576 41.7079C60.1362 41.2082 59.1108 40.8761 58.0248 40.7663C58.0075 40.7606 57.9901 40.7606 57.9815 40.7606C57.9641 40.7952 57.9526 40.8212 57.9381 40.8559V40.8616H57.9324C57.8428 40.9512 57.7504 41.035 57.6551 41.1216C57.6493 41.1274 57.6435 41.1332 57.6378 41.1389C57.3605 41.3816 57.0659 41.6097 56.7626 41.8206C56.6586 41.8928 56.5517 41.965 56.442 42.0314C56.338 42.0979 56.2253 42.1585 56.1156 42.225C56.0058 42.2856 55.8932 42.3463 55.7776 42.4012C55.6766 42.4503 55.5784 42.5022 55.4773 42.5456C55.3155 42.6236 55.1566 42.69 54.9891 42.7507C54.8996 42.7853 54.8071 42.8171 54.7118 42.8517C54.5905 42.8893 54.4692 42.9297 54.345 42.9673C54.2179 43.0019 54.0908 43.0337 53.9666 43.0684C53.4554 43.1897 52.9355 43.2734 52.3982 43.3023L51.2487 43.285Z" fill="#171B2E"/>
<path d="M72.9548 33.4328C72.9866 37.9473 68.8938 41.3036 64.8009 40.8212C59.6539 40.3533 56.5691 34.7065 58.8942 30.1025C62.5509 23.1617 72.8075 25.6053 72.9548 33.4328ZM72.9548 33.4328C72.9375 27.2285 65.523 23.9936 60.971 28.2048C56.5662 32.2745 58.9144 39.7034 64.8529 40.5064C69.0757 41.1245 72.9953 37.7018 72.9548 33.4328Z" fill="#171B2E"/>
<path d="M59.9021 37.8894C57.3488 44.7551 47.8981 45.4483 44.2471 39.1285C39.698 30.9024 48.9494 22.3702 56.7278 27.3815C57.7878 28.0978 58.6803 29.0336 59.3476 30.1255C58.0102 32.5344 58.2355 35.6798 59.9021 37.8894ZM59.9021 37.8894C58.5648 36.2921 58.016 34.097 58.3713 32.0462C58.4839 31.3559 58.7092 30.6858 59.0241 30.059L59.0298 30.215C57.7503 28.1989 55.4483 26.8067 53.2358 26.4948C48.3573 25.7149 43.8139 29.4698 43.6261 34.3974C43.4528 37.5312 45.2292 40.6305 47.9991 42.1007C52.3433 44.524 57.9987 42.479 59.9021 37.8894Z" fill="#171B2E"/>
<path d="M76.1117 24.0889C81.0249 23.2108 85.938 22.2952 90.9118 21.7753C94.6493 21.3969 98.4244 21.0185 102.191 21.4229C104.348 21.628 107.373 22.6649 105.177 25.2673C103.857 26.7086 102.142 27.6589 100.475 28.5919C98.2569 29.7905 95.9664 30.8246 93.6586 31.798C89.0401 33.7476 84.3205 35.4113 79.5749 36.9826L80.0312 36.3587C80.0341 36.6966 79.7309 37.0288 79.3785 37.0201L79.572 36.9884L74.9622 38.4354C71.681 39.5012 68.5413 40.3591 65.1128 41.3383L65.0262 41.3642H64.9279H64.9222L65.419 41.1592C65.3034 41.2834 65.081 41.3758 64.9135 41.37L65.1012 41.344C61.7392 42.2596 57.603 43.3572 54.2352 44.1746C53.025 44.475 51.8061 44.7552 50.5929 45.0412C50.5929 45.044 51.1562 44.3248 51.1504 44.3479V44.9227C50.8876 44.9805 47.3002 45.795 46.9305 45.8759C45.7116 46.1503 44.484 46.4073 43.2594 46.676L43.6146 46.4853L43.6089 46.4911L43.4587 46.6413L43.2565 46.6817L39.1145 47.5309C31.6048 49.0098 21.016 50.8612 12.3075 51.3147C10.0546 51.4244 7.78436 51.4822 5.52565 51.2714C4.3703 51.1472 3.17451 50.997 2.09137 50.4771C-0.701692 48.978 1.99894 46.6413 3.68286 45.5842C6.85141 43.5479 10.3521 42.1008 13.821 40.723C19.3869 38.5683 25.1001 36.7082 30.8047 35.0676C23.7484 37.4534 16.7123 39.9201 9.97952 43.0973C7.37709 44.3855 4.62446 45.6419 2.51884 47.6638C2.28199 47.9122 2.07693 48.1808 1.94984 48.4436C1.82564 48.7123 1.81697 48.9231 1.9094 49.0935C2.21556 49.5412 2.91743 49.781 3.48933 49.9167C4.88441 50.246 6.36616 50.3038 7.81034 50.3211C18.0727 50.2084 29.3143 48.0046 38.8373 46.1618L42.9561 45.304L42.6037 45.4946L42.6095 45.4888L42.7539 45.3444L42.9648 45.2982C45.0646 44.8534 48.1378 44.1429 50.2666 43.6547L49.7091 44.3537C49.7062 44.3508 49.712 43.7847 49.7091 43.7818L50.2666 43.649C54.8908 42.5629 60.1333 41.2429 64.72 39.9952L64.9077 39.9692C64.746 39.9605 64.5322 40.05 64.4225 40.1685L64.9193 39.9634H64.9251L64.7402 39.9894L69.9075 38.5365L70.1039 38.5076C70.0144 38.5019 69.9162 38.5279 69.8382 38.5712L69.9595 38.525C72.6081 37.7596 76.4959 36.5435 79.1647 35.7464L79.3583 35.7146C79.0232 35.703 78.6997 36.0352 78.717 36.3645L79.1734 35.7406C86.247 33.4299 93.3524 31.0528 99.9928 27.6907C101.339 26.9513 105.255 24.9381 105.007 23.4448C103.753 21.2467 93.5402 22.1132 90.9638 22.2836C85.9842 22.6505 81.0537 23.4274 76.1117 24.0889Z" fill="#829FD3"/>
<path d="M29.1873 5.88912C28.9273 8.71684 26.114 10.5972 23.6011 10.0744C20.3517 9.53136 18.5898 5.66094 20.4557 2.79856C23.2488 -1.35781 29.6379 0.912455 29.1873 5.88912ZM29.1873 5.88912C29.6032 2.01581 25.1147 -0.508629 22.0328 1.8685C19.0664 4.10988 20.0369 8.84971 23.6358 9.76243C26.2325 10.4441 28.9331 8.56953 29.1873 5.88912Z" fill="#171B2E"/>
<path fill-rule="evenodd" clip-rule="evenodd" d="M82.0628 71.1726C77.0825 68.5143 71.1274 64.8405 64.2375 60.0634H64.2318L64.0556 59.9392L62.6747 58.9629H62.6721C51.3871 50.9145 40.5227 42.1114 30.3984 32.6339C30.3294 32.585 30.2991 32.5512 30.3396 32.5834L30.3252 32.5718L30.2992 32.5458L30.2443 32.4938L30.1374 32.3928L29.9208 32.1877C23.0782 25.6108 16.3108 18.8376 10.9009 10.9957C9.17361 8.38169 4.5291 1.23297 9.74551 0.0516201C12.4586 -0.278831 16.3911 1.00825 20.6463 3.02495C20.5229 3.22927 20.4147 3.44435 20.3236 3.66879C17.6977 2.47296 14.9988 1.46038 12.1717 0.964347C1.77069 -0.537607 15.5049 15.3138 17.7925 17.8729C21.7554 22.3759 26.0504 26.6593 30.4263 30.7695C30.5781 30.9145 30.7633 31.0868 30.9412 31.2523C31.0631 31.3657 31.1816 31.476 31.2837 31.5722C31.2037 31.5103 31.0109 31.3828 30.8393 31.4049L31.3075 31.5934C31.3256 31.6088 31.3255 31.607 31.3118 31.5951L31.313 31.5956C32.5608 32.7538 33.8432 33.9409 35.1228 35.076C38.8574 38.4237 43.0369 41.9966 46.9016 45.1449L47.0052 45.2286L47.0053 45.2287C49.5682 47.2973 52.3703 49.559 55.015 51.5311C55.7588 52.0891 56.5 52.6506 57.2414 53.212L57.2417 53.2123C59.1842 54.6835 61.1273 56.1551 63.1182 57.5678H63.1256L63.322 57.7065L64.6838 58.6741H64.6853L64.8644 58.7983C70.3176 62.6167 75.8835 66.2878 81.6776 69.5372C81.8696 69.6456 82.1291 69.7912 82.4451 69.9657C82.2726 70.3552 82.1451 70.7602 82.0628 71.1726ZM92.3956 75.7336C106.765 80.201 102.48 67.2186 76.3485 43.7672C82.8936 50.1649 97.2661 64.2746 99.522 72.6596C100.264 76.2707 96.9512 76.1276 92.9534 74.8048C92.7988 75.1276 92.6129 75.4388 92.3956 75.7336ZM31.3118 31.5951L31.3075 31.5934C31.3044 31.5907 31.3007 31.5875 31.2964 31.5837C31.2935 31.5812 31.2904 31.5784 31.287 31.5753L31.2837 31.5722C31.2958 31.5816 31.3054 31.5895 31.3118 31.5951ZM28.5155 7.84762C28.6007 7.71128 28.679 7.56998 28.7499 7.42416C34.1133 10.6364 39.1121 14.1228 42.0173 16.1716C37.6221 13.2731 33.1295 10.4291 28.5155 7.84762Z" fill="#829FD3"/>
<path d="M83.7544 68.1133C86.351 65.5976 90.5739 66.1723 92.5004 68.7546C95.7094 72.8474 92.4253 78.8032 87.258 78.318C82.2264 77.8183 80.0833 71.5967 83.7544 68.1133ZM83.7544 68.1133C80.1959 71.4956 82.3998 77.5439 87.2955 77.8327C91.9892 78.1273 94.9671 72.7925 92.2491 68.9539C90.3312 66.1666 86.1806 65.7564 83.7544 68.1133Z" fill="#171B2E"/>
<path d="M64.5987 40.0181L64.6507 40.0008L64.9627 39.9314L65.162 39.9892L64.6883 40.3531L63.9749 40.3676L64.3503 40.0961L64.5987 40.0181Z" fill="#829FD3"/>
<path d="M78.1769 37.1759L78.0353 36.3122L79.0174 35.7837L79.364 35.6768L79.4391 35.6653" fill="#829FD3"/>
</svg>
