<svg width="239" height="88" viewBox="0 0 239 88" fill="none" xmlns="http://www.w3.org/2000/svg">
<g clip-path="url(#clip0_602_494)">
<path d="M21.7012 20.1001H27.6429V65.1346H21.1281L11.6787 32.6173V65.1346H5.73706V20.1001H12.5383L21.7012 51.681V20.1001Z" fill="white"/>
<path d="M44.7864 59.8823H57.7436V65.1346H38.2717V20.1001H57.2429V25.3524H44.7864V39.2365H55.0954V44.4888H44.7864V59.8823Z" fill="white"/>
<path d="M83.5132 20.1001H90.0279V58.8034C90.0279 63.0242 87.7831 65.1346 83.299 65.1346H75.3517C70.8648 65.1346 68.6228 63.0242 68.6228 58.8034V20.1001H75.1375V57.7971C75.1375 58.6608 75.2822 59.2254 75.5659 59.4882C75.8524 59.751 76.4254 59.8851 77.285 59.8851H81.3657C82.2725 59.8851 82.8567 59.7538 83.121 59.4882C83.3824 59.2254 83.5132 58.6608 83.5132 57.7971V20.1001Z" fill="white"/>
<path d="M121.383 20.1V25.3523H113.867V65.1345H107.424V25.3495H99.9083V20.0972H121.383V20.1Z" fill="white"/>
<path d="M136.593 46.9319V65.1318H130.151V20.1001H144.827C149.267 20.1001 151.484 22.2105 151.484 26.4314V40.5307C151.484 44.1757 149.884 46.261 146.685 46.7893L153.773 65.1346H146.83L140.101 46.9347H136.593V46.9319ZM136.593 25.3496V41.7522H142.894C143.753 41.7522 144.326 41.6209 144.613 41.3553C144.899 41.0926 145.041 40.5279 145.041 39.6642V27.4349C145.041 26.5711 144.897 26.0093 144.613 25.7437C144.326 25.481 143.753 25.3468 142.894 25.3468H136.593V25.3496Z" fill="white"/>
<path d="M223.226 20.1001H229.168V65.1346H222.653L213.204 32.6173V65.1346H207.262V20.1001H214.063L223.226 51.681V20.1001Z" fill="white"/>
<path d="M176.6 49.8697C179.142 54.0486 176.605 59.5804 171.835 60.4973C166.997 61.4644 162.533 57.196 163.295 52.2876C163.715 49.2072 166.285 46.5824 169.356 46.1631L169.492 46.1436C169.509 46.1687 169.57 46.2498 169.584 46.2721C169.91 46.6187 170.689 47.4685 171.078 47.885C171.136 47.9493 171.206 48.0164 171.248 48.103C170.944 49.2407 170.355 50.2973 169.562 51.1527L169.548 50.9374L170.516 51.7676L170.408 51.7397L174.677 50.8592L174.65 50.8955V50.8899C174.886 50.5181 175.189 50.1771 175.498 49.8585C175.223 50.1576 174.897 50.6216 174.722 50.8927V50.9207L174.691 50.9291L170.46 51.9913L170.402 52.0052C170.049 51.7285 169.701 51.4462 169.353 51.1639L169.236 51.0688L169.342 50.9514C170.068 50.1296 170.594 49.1373 170.858 48.0779L170.872 48.2148C170.869 48.2232 170.889 48.2484 170.88 48.2372C170.658 48.0024 170.305 47.6474 170.079 47.4126L169.25 46.56L169.242 46.5517L169.234 46.5377L169.217 46.5153L169.428 46.602C168.015 46.8508 166.686 47.5356 165.69 48.5726C161.818 52.5196 164.143 59.3596 169.618 60.0836C175.22 60.8606 179.248 54.862 176.6 49.8697Z" fill="white"/>
<path d="M167.965 40.3071L167.873 41.2938C167.885 40.9612 167.915 40.6342 167.965 40.3071Z" fill="white"/>
<path d="M171.039 48.1254C170.744 49.2295 170.191 50.2274 169.448 51.0492C168.919 51.6223 168.316 52.1058 167.631 52.4776C167.626 52.4832 167.626 52.4832 167.626 52.4832C166.627 53.0311 165.478 53.3414 164.268 53.3414C164.054 53.3414 163.851 53.3302 163.648 53.3078C163.642 53.3078 163.642 53.3078 163.642 53.3078C163.59 53.3078 163.537 53.3022 163.481 53.291C159.979 52.9053 157.256 49.9172 157.256 46.2945C157.256 44.6034 157.848 43.0548 158.836 41.8416C159.829 40.6173 161.228 39.7396 162.825 39.4014C164.074 40.581 165.762 41.3021 167.609 41.3021C167.701 41.3021 167.784 41.3021 167.871 41.2966C167.865 41.3944 167.865 41.4838 167.865 41.5817C167.865 43.3678 168.427 45.0254 169.387 46.3839L171.039 48.1254Z" fill="white"/>
<path d="M190.822 29.8025C190.822 30.929 190.564 32.1002 190.021 33.0786C189.543 33.0478 189.042 33.0898 188.569 33.1596C186.38 33.5063 184.416 34.9822 183.481 36.9836C183.431 36.9864 183.328 36.9724 183.278 36.9724L183.226 36.9696L183.184 36.9081C182.155 35.2701 180.096 33.9647 178.491 33.5761H178.486H178.466L178.422 33.5678L177.604 33.4056C177.604 33.4056 177.657 33.4084 177.637 33.4084L177.484 33.4112L177.406 33.2714C176.474 31.5887 176.271 29.523 176.839 27.6837C177.84 24.4468 180.861 22.4594 184.01 22.6243C187.74 22.7305 190.875 26.0625 190.822 29.8025ZM190.822 29.8025C190.836 26.2218 188.002 23.1526 184.444 22.9094C183.123 22.8227 181.773 23.0995 180.63 23.7536L180.533 23.7787C180.524 23.7815 180.602 23.7759 180.647 23.7396C180.689 23.706 180.694 23.6865 180.7 23.6753L180.613 23.7647C179.837 24.2064 179.145 24.7906 178.583 25.4866C176.889 27.5719 176.588 30.6495 177.862 33.0199L177.632 32.8829C177.643 32.8829 177.665 32.8829 177.676 32.8857C179.91 33.2379 182.135 34.6327 183.426 36.7432L183.331 36.6789C183.351 36.6789 183.367 36.6817 183.387 36.6817L183.256 36.7599C184.313 34.7585 186.358 33.3944 188.552 33.0954C189.031 33.0367 189.537 33.0059 190.018 33.0478C190.502 32.1142 190.839 30.9178 190.822 29.8025Z" fill="white"/>
<path d="M180.805 23.4905C180.63 23.5883 180.458 23.689 180.294 23.8008C180.288 23.8008 180.283 23.8008 180.277 23.812C178.372 25.0614 177.106 27.2306 177.106 29.6988C177.106 31.1216 177.523 32.4465 178.244 33.5507C177.965 33.4752 177.687 33.4165 177.401 33.3746C177.395 33.3746 177.395 33.3746 177.395 33.3746C176.983 33.3103 176.563 33.2767 176.135 33.2767C175.601 33.2767 175.084 33.3243 174.577 33.4277C174.235 30.4759 172.079 28.0831 169.253 27.4011C169.873 24.1558 172.719 21.6987 176.135 21.6987C177.932 21.6987 179.568 22.3752 180.805 23.4905Z" fill="white"/>
<path d="M174.574 33.4277C170.814 34.2439 168.096 37.6513 168.071 41.5004C163.615 41.8973 159.723 37.7659 160.391 33.3159C160.813 29.7407 164.065 26.8979 167.651 27.0069C171.161 27.0097 174.324 29.9112 174.574 33.4277ZM174.574 33.4277C173.682 27.5185 166.366 25.3018 162.477 29.8413C159.787 32.9217 160.608 38.0063 164.126 40.0776C165.236 40.7652 166.56 41.1035 167.862 41.0783L167.659 41.288C167.793 37.4473 170.769 33.9867 174.574 33.4277Z" fill="white"/>
<path d="M167.965 40.3071L167.873 41.2938C167.884 40.9612 167.915 40.6342 167.965 40.3071Z" fill="white"/>
<path d="M167.965 40.3071C167.935 40.6258 168.012 40.9668 168.012 41.3078L167.734 41.2911C167.793 40.9528 167.94 40.6286 167.965 40.3071ZM167.965 40.3071C167.918 40.6481 167.99 40.9808 168.012 41.2994L167.734 41.2827C167.818 40.9724 167.943 40.6509 167.965 40.3071Z" fill="white"/>
<path d="M167.965 40.3071L167.873 41.2938C167.884 40.9612 167.915 40.6342 167.965 40.3071Z" fill="white"/>
<path d="M167.965 40.3071C167.935 40.6258 168.012 40.9668 168.012 41.3078L167.734 41.2911C167.793 40.9528 167.94 40.6286 167.965 40.3071ZM167.965 40.3071C167.918 40.6481 167.99 40.9808 168.012 41.2994L167.734 41.2827C167.818 40.9724 167.943 40.6509 167.965 40.3071Z" fill="white"/>
<path d="M175.492 49.8584C175.707 49.8752 175.921 49.8864 176.138 49.8864C176.294 49.8864 176.441 49.8808 176.597 49.8696" fill="white"/>
<path d="M175.492 49.8583C175.862 49.685 176.241 49.7018 176.597 49.8695C176.257 50.082 175.84 50.068 175.492 49.8583Z" fill="white"/>
<path d="M199.576 35.7897C199.576 38.339 198.23 40.5696 196.219 41.8107C196.324 41.3327 196.38 40.8351 196.38 40.3236C196.38 36.5723 193.465 33.5087 189.785 33.2935C189.646 33.2823 189.501 33.2767 189.362 33.2767C188.027 33.2767 186.778 33.6513 185.715 34.3026C186.249 31.798 188.107 29.791 190.516 29.0503C191.162 28.8518 191.851 28.7456 192.566 28.7456C196.436 28.7456 199.576 31.8987 199.576 35.7897Z" fill="white"/>
<path d="M184.227 45.1147C179.723 48.6591 180.107 55.9128 185.59 58.6298C192.811 61.9283 199.64 54.0568 195.623 47.2503C195.217 46.6102 194.711 45.9925 194.152 45.4753C194.761 45.9533 195.284 46.5403 195.74 47.1749C200.355 54.2441 192.942 62.6858 185.356 59.119C179.612 56.2287 179.295 48.5278 184.227 45.1147Z" fill="white"/>
<path d="M175.476 49.864C175.178 50.1798 174.911 50.5236 174.664 50.8954V50.901C174.001 51.8989 173.565 53.0645 173.426 54.314C173.389 54.6103 173.373 54.9038 173.373 55.2113C173.373 56.6537 173.762 58.0066 174.441 59.1722C175.793 61.4951 178.302 63.052 181.17 63.052C182.196 63.052 183.173 62.8536 184.063 62.4874C185.782 61.8053 187.198 60.5195 188.057 58.8871C188.644 57.7913 188.97 56.5363 188.97 55.2113C188.97 52.2483 187.337 49.6739 184.922 48.3377C184.035 47.8542 183.047 47.5327 182.002 47.4265C181.985 47.4209 181.968 47.4209 181.96 47.4209C181.943 47.4544 181.932 47.4796 181.918 47.5131V47.5187H181.913C181.826 47.6054 181.737 47.6864 181.646 47.7703C181.64 47.7759 181.634 47.7815 181.629 47.7871C181.362 48.0219 181.078 48.2427 180.786 48.4468C180.686 48.5166 180.583 48.5865 180.477 48.6508C180.377 48.7151 180.269 48.7738 180.163 48.8381C180.057 48.8968 179.949 48.9555 179.837 49.0086C179.74 49.0561 179.646 49.1064 179.548 49.1484C179.392 49.2238 179.239 49.2881 179.078 49.3468C178.992 49.3804 178.903 49.4111 178.811 49.4447C178.694 49.481 178.577 49.5201 178.458 49.5565C178.335 49.59 178.213 49.6208 178.093 49.6543C177.601 49.7717 177.1 49.8528 176.583 49.8807L175.476 49.864Z" fill="white"/>
<path d="M196.38 40.3291C196.411 44.6981 192.469 47.9462 188.527 47.4794C183.57 47.0266 180.6 41.5618 182.839 37.1062C186.36 30.3891 196.238 32.7539 196.38 40.3291ZM196.38 40.3291C196.363 34.3249 189.223 31.1942 184.839 35.2697C180.597 39.2082 182.858 46.3977 188.577 47.1747C192.644 47.7729 196.419 44.4605 196.38 40.3291Z" fill="white"/>
<path d="M183.81 44.6423C181.351 51.2866 172.249 51.9575 168.733 45.8414C164.352 37.8805 173.261 29.6233 180.753 34.4731C181.773 35.1663 182.633 36.072 183.276 37.1286C181.988 39.4598 182.205 42.5039 183.81 44.6423ZM183.81 44.6423C182.522 43.0965 181.993 40.9721 182.335 38.9874C182.444 38.3194 182.661 37.6709 182.964 37.0643L182.97 37.2152C181.737 35.2641 179.52 33.9168 177.389 33.6149C172.691 32.8602 168.316 36.4941 168.135 41.2628C167.968 44.2956 169.679 47.295 172.346 48.7178C176.53 51.063 181.976 49.0839 183.81 44.6423Z" fill="white"/>
<path d="M199.421 31.2868C204.152 30.437 208.884 29.5509 213.674 29.0478C217.273 28.6816 220.909 28.3154 224.536 28.7067C226.614 28.9052 229.527 29.9087 227.413 32.4272C226.141 33.8221 224.489 34.7417 222.884 35.6446C220.748 36.8046 218.542 37.8053 216.319 38.7473C211.871 40.6341 207.326 42.2442 202.756 43.7648L203.195 43.1611C203.198 43.4881 202.906 43.8096 202.567 43.8012L202.753 43.7704L198.313 45.1709C195.153 46.2023 192.13 47.0325 188.828 47.9801L188.744 48.0052H188.65H188.644L189.123 47.8068C189.012 47.927 188.797 48.0164 188.636 48.0108L188.817 47.9857C185.579 48.8718 181.596 49.934 178.352 50.725C177.187 51.0158 176.013 51.2869 174.844 51.5636C174.844 51.5664 175.387 50.8704 175.381 50.8928V51.449C175.128 51.5049 171.673 52.2932 171.317 52.3714C170.143 52.637 168.961 52.8858 167.782 53.1457L168.124 52.9613L168.118 52.9668L167.974 53.1122L167.779 53.1513L163.79 53.9731C156.558 55.4043 146.36 57.1961 137.973 57.6349C135.803 57.7412 133.617 57.7971 131.442 57.593C130.329 57.4728 129.177 57.3275 128.134 56.8243C125.444 55.3736 128.045 53.1122 129.667 52.0891C132.719 50.1185 136.09 48.718 139.431 47.3847C144.791 45.2994 150.293 43.4993 155.787 41.9116C148.991 44.2205 142.215 46.6076 135.731 49.6824C133.225 50.9291 130.574 52.145 128.546 54.1017C128.318 54.3421 128.12 54.6021 127.998 54.8564C127.878 55.1164 127.87 55.3205 127.959 55.4854C128.254 55.9186 128.93 56.1507 129.481 56.282C130.824 56.6007 132.251 56.6566 133.642 56.6734C143.525 56.5644 154.352 54.4316 163.523 52.6482L167.49 51.818L167.15 52.0025L167.156 51.9969L167.295 51.8571L167.498 51.8124C169.52 51.3819 172.48 50.6943 174.53 50.2219L173.993 50.8984C173.99 50.8956 173.996 50.3477 173.993 50.3449L174.53 50.2163C178.984 49.1653 184.032 47.8878 188.45 46.6803L188.63 46.6551C188.475 46.6467 188.269 46.7334 188.163 46.848L188.642 46.6495H188.647L188.469 46.6747L193.446 45.2687L193.635 45.2407C193.548 45.2351 193.454 45.2603 193.379 45.3022L193.496 45.2575C196.046 44.5168 199.791 43.34 202.361 42.5685L202.547 42.5377C202.225 42.5265 201.913 42.848 201.93 43.1666L202.369 42.5629C209.182 40.3267 216.025 38.0262 222.42 34.7725C223.716 34.0569 227.488 32.1086 227.249 30.6634C226.041 28.5362 216.205 29.3748 213.724 29.5397C208.928 29.8947 204.18 30.6467 199.421 31.2868Z" fill="white"/>
<path d="M150.88 43.8262H137.739V46.9373H140.104L141.834 51.611H148.552L146.688 46.792C148.749 46.4565 150.149 45.4642 150.88 43.8262Z" fill="white"/>
<path d="M214.063 20.1001H207.262V31.8933H217.488L214.063 20.1001Z" fill="white"/>
<path d="M153.837 15.0908C153.767 15.2334 153.695 15.3731 153.612 15.5045C158.054 18.0007 162.382 20.7484 166.616 23.5549C163.815 21.573 159.003 18.1992 153.837 15.0908Z" fill="white"/>
<path d="M156.296 38.4789L156.299 38.4817C156.29 38.4761 156.282 38.4677 156.268 38.4565C156.271 38.4593 156.274 38.4621 156.277 38.4621C156.288 38.4705 156.29 38.4733 156.296 38.4789Z" fill="white"/>
<path d="M188.333 46.7025L188.383 46.6857L188.683 46.6187L188.875 46.6746L188.419 47.0268L187.732 47.0407L188.093 46.778L188.333 46.7025Z" fill="white"/>
<path d="M201.409 43.9522L201.273 43.1164L202.219 42.6048L202.553 42.5014L202.625 42.4902" fill="white"/>
<path d="M145.041 38.708V39.6444C145.041 40.5082 144.897 41.0728 144.613 41.3356C144.326 41.6011 143.753 41.7325 142.894 41.7325H136.593V38.7108H130.151V47.569H136.593V46.9121H140.101L140.343 47.569H146.994L146.685 46.7696C149.881 46.2413 151.484 44.156 151.484 40.511V38.7108H145.041V38.708Z" fill="white"/>
<path d="M205.551 75.765C205.245 75.5945 204.992 75.452 204.806 75.3485C199.223 72.2039 193.863 68.6511 188.614 64.9557L188.441 64.8355H188.438C188.171 64.6455 187.128 63.8991 187.128 63.8991L186.939 63.7649H186.936C184.288 61.8781 181.723 59.8795 179.128 57.9229C176.547 55.9885 173.809 53.7635 171.314 51.7425C167.595 48.6929 163.567 45.2351 159.971 41.9982C158.738 40.8997 157.506 39.7508 156.302 38.6299H156.299C156.31 38.6411 156.31 38.6411 156.296 38.6271C156.285 38.6215 155.845 38.4454 155.845 38.4454C156.009 38.4231 156.19 38.5433 156.271 38.6048C156.029 38.3756 155.695 38.0681 155.45 37.8333C151.236 33.8556 147.102 29.713 143.283 25.3524C141.08 22.8758 127.853 7.53538 137.87 8.98892C140.596 9.46971 143.194 10.4508 145.723 11.6109C145.812 11.3928 145.915 11.1832 146.034 10.9875C141.934 9.03644 138.145 7.78696 135.533 8.10841C130.512 9.25168 134.983 16.17 136.646 18.6997C141.856 26.2888 148.374 32.8409 154.964 39.2085L155.172 39.407L155.275 39.5048L155.328 39.5552L155.353 39.5803L155.367 39.5915C155.331 39.5607 155.356 39.5915 155.42 39.6362C165.172 48.8103 175.637 57.3331 186.508 65.1207H186.513L187.843 66.0655L188.013 66.1857C188.013 66.1857 188.021 66.1857 188.024 66.1857C194.655 70.8062 200.383 74.3534 205.176 76.9251C205.256 76.5225 205.382 76.134 205.551 75.765Z" fill="white"/>
<path d="M199.682 50.4033C205.985 56.5948 219.827 70.2497 221.991 78.3644C222.706 81.8585 219.521 81.7215 215.674 80.4441C215.532 80.7543 215.357 81.0534 215.154 81.3385C228.968 85.6488 224.837 73.0897 199.682 50.4033Z" fill="white"/>
<path d="M206.781 73.8921C209.282 71.4574 213.348 72.0137 215.204 74.5127C218.294 78.4736 215.132 84.2374 210.155 83.7678C205.309 83.2842 203.245 77.2632 206.781 73.8921ZM206.781 73.8921C203.354 77.1654 205.476 83.0187 210.191 83.2982C214.711 83.5833 217.579 78.4205 214.962 74.7055C213.115 72.0081 209.118 71.6112 206.781 73.8921Z" fill="white"/>
<path d="M154.229 13.6738C153.979 16.4104 151.269 18.2301 148.849 17.7242C145.72 17.1987 144.023 13.453 145.82 10.6829C148.51 6.66052 154.663 8.85761 154.229 13.6738ZM154.229 13.6738C154.63 9.9254 150.307 7.48233 147.339 9.78283C144.482 11.952 145.417 16.539 148.883 17.4223C151.384 18.082 153.984 16.2679 154.229 13.6738Z" fill="white"/>
</g>
<defs>
<clipPath id="clip0_602_494">
<rect width="239" height="88" fill="white"/>
</clipPath>
</defs>
</svg>
