<svg width="1919" height="153" viewBox="0 0 1919 153" fill="none" xmlns="http://www.w3.org/2000/svg">
<path fill-rule="evenodd" clip-rule="evenodd" d="M-1 72.0781L63 66.6833C127 61.2885 255 50.4989 383 37.0119C511 23.525 639 7.34058 767 1.94579C895 -3.44901 1023 1.94579 1151 23.525C1279 45.1041 1407 82.8677 1535 90.9599C1663 99.0521 1791 77.4729 1855 66.6833L1919 55.8937V153H1855C1791 153 1663 153 1535 153C1407 153 1279 153 1151 153C1023 153 895 153 767 153C639 153 511 153 383 153C255 153 127 153 63 153H-1V72.0781Z" fill="#303760"/>
</svg>
