<svg width="1920" height="153" viewBox="0 0 1920 153" fill="none" xmlns="http://www.w3.org/2000/svg">
<path fill-rule="evenodd" clip-rule="evenodd" d="M0 80.9219L64 86.3167C128 91.7115 256 102.501 384 115.988C512 129.475 640 145.659 768 151.054C896 156.449 1024 151.054 1152 129.475C1280 107.896 1408 70.1323 1536 62.0401C1664 53.9479 1792 75.5271 1856 86.3167L1920 97.1063V0H1856C1792 0 1664 0 1536 0C1408 0 1280 0 1152 0C1024 0 896 0 768 0C640 0 512 0 384 0C256 0 128 0 64 0H0V80.9219Z" fill="#151928"/>
</svg>
