<svg width="28" height="27" viewBox="0 0 28 27" fill="none" xmlns="http://www.w3.org/2000/svg">
<path fill-rule="evenodd" clip-rule="evenodd" d="M0 27C0.732706 24.6331 1.58196 22.3829 2.35837 20.0599C-2.78833 11.0535 3.58098 0.914559 12.2079 0.0723408C20.3532 -0.722956 27.0314 5.13079 27.0517 13.1197C27.0729 21.5493 18.9019 28.6277 9.71081 25.7506C9.01751 25.5337 8.15966 24.8265 7.35245 24.779C6.22432 24.7125 4.74587 25.523 3.60678 25.8894C2.35823 26.2913 1.27256 26.694 0 27ZM7.62994 22.2807C15.052 26.7876 23.9394 21.7325 24.6933 14.3689C25.3757 7.70297 20.056 1.77177 12.9015 2.29318C4.73366 2.8883 -0.172597 12.6434 4.85534 19.7822C4.41025 21.0026 3.99374 22.2515 3.60678 23.5299C4.96952 23.1351 6.22571 22.6338 7.62994 22.2807Z" fill="white"/>
<path fill-rule="evenodd" clip-rule="evenodd" d="M10.5433 6.87354C11.324 8.50745 12.5316 10.9242 10.5433 12.0093C11.5531 14.1452 13.2226 15.621 15.3986 16.5898C16.1223 16.1109 16.5975 15.3833 17.2021 14.7854C18.4653 15.2798 19.646 15.8564 20.6702 16.5898C20.7755 18.9776 18.7644 19.8607 17.0634 19.7822C13.4748 19.617 8.54259 15.0808 7.35258 11.7317C6.64638 9.74447 7.45859 5.94359 10.5433 6.87354Z" fill="white"/>
</svg>
