<svg width="50" height="50" viewBox="0 0 50 50" fill="none" xmlns="http://www.w3.org/2000/svg">
<path d="M25.0088 12.1602C17.9193 12.1602 12.1797 17.906 12.1797 24.9894C12.1797 32.079 17.9255 37.8185 25.0088 37.8185C32.0984 37.8185 37.838 32.0727 37.838 24.9894C37.838 17.8998 32.0922 12.1602 25.0088 12.1602ZM25.0088 33.3165C20.4068 33.3165 16.6818 29.5894 16.6818 24.9894C16.6818 20.3894 20.4088 16.6623 25.0088 16.6623C29.6088 16.6623 33.3359 20.3894 33.3359 24.9894C33.338 29.5894 29.6109 33.3165 25.0088 33.3165Z" fill="url(#paint0_linear_319_970)"/>
<path d="M35.3088 0.157056C30.7088 -0.0575279 19.3151 -0.0471112 14.7109 0.157056C10.6651 0.346639 7.09631 1.32373 4.21922 4.20081C-0.58911 9.00914 0.0254735 15.4883 0.0254735 24.9903C0.0254735 34.7153 -0.516193 41.0445 4.21922 45.7799C9.04631 50.6049 15.6192 49.9737 25.0088 49.9737C34.6422 49.9737 37.9672 49.9799 41.3734 48.6612C46.0047 46.8633 49.5005 42.7237 49.8422 35.2883C50.0588 30.6862 50.0463 19.2945 49.8422 14.6903C49.4297 5.91331 44.7192 0.590389 35.3088 0.157056ZM42.5901 42.5987C39.438 45.7508 35.0651 45.4695 24.9484 45.4695C14.5317 45.4695 10.3547 45.6237 7.30672 42.5674C3.79631 39.0737 4.43172 33.4633 4.43172 24.957C4.43172 13.4466 3.25047 5.15706 14.8026 4.56539C17.4567 4.47164 18.238 4.44039 24.9192 4.44039L25.013 4.50289C36.1151 4.50289 44.8255 3.34039 45.3484 14.8903C45.4672 17.5258 45.4942 18.3174 45.4942 24.9883C45.4922 35.2841 45.688 39.4862 42.5901 42.5987Z" fill="url(#paint1_linear_319_970)"/>
<path d="M38.3465 14.6521C40.0022 14.6521 41.3445 13.3098 41.3445 11.6542C41.3445 9.99845 40.0022 8.65625 38.3465 8.65625C36.6908 8.65625 35.3486 9.99845 35.3486 11.6542C35.3486 13.3098 36.6908 14.6521 38.3465 14.6521Z" fill="url(#paint2_linear_319_970)"/>
<defs>
<linearGradient id="paint0_linear_319_970" x1="12.1797" y1="40.6694" x2="33.746" y2="38.2352" gradientUnits="userSpaceOnUse">
<stop offset="0.145604" stop-color="#7092E0"/>
<stop offset="1" stop-color="#8BAEF3"/>
</linearGradient>
<linearGradient id="paint1_linear_319_970" x1="-2.95619e-07" y1="55.5565" x2="42.0259" y2="50.8133" gradientUnits="userSpaceOnUse">
<stop offset="0.145604" stop-color="#7092E0"/>
<stop offset="1" stop-color="#8BAEF3"/>
</linearGradient>
<linearGradient id="paint2_linear_319_970" x1="35.3486" y1="15.3182" x2="40.3883" y2="14.7494" gradientUnits="userSpaceOnUse">
<stop offset="0.145604" stop-color="#7092E0"/>
<stop offset="1" stop-color="#8BAEF3"/>
</linearGradient>
</defs>
</svg>
