<svg width="28" height="28" viewBox="0 0 28 28" fill="none" xmlns="http://www.w3.org/2000/svg">
<path d="M14.0043 7.23779C10.1641 7.23779 7.05518 10.3501 7.05518 14.1869C7.05518 18.0271 10.1675 21.136 14.0043 21.136C17.8444 21.136 20.9534 18.0237 20.9534 14.1869C20.9534 10.3467 17.8411 7.23779 14.0043 7.23779ZM14.0043 18.6974C11.5115 18.6974 9.49381 16.6786 9.49381 14.1869C9.49381 11.6953 11.5126 9.67643 14.0043 9.67643C16.4959 9.67643 18.5148 11.6953 18.5148 14.1869C18.5159 16.6786 16.4971 18.6974 14.0043 18.6974Z" fill="white"/>
<path d="M19.5836 0.736439C17.0919 0.620206 10.9203 0.625849 8.42638 0.736439C6.23491 0.839129 4.30183 1.36838 2.74341 2.9268C0.138907 5.53131 0.471806 9.04087 0.471806 14.1878C0.471806 19.4555 0.178404 22.8838 2.74341 25.4488C5.35808 28.0623 8.91838 27.7204 14.0044 27.7204C19.2225 27.7204 21.0235 27.7238 22.8685 27.0095C25.3772 26.0356 27.2707 23.7933 27.4558 19.7658C27.5731 17.273 27.5664 11.1026 27.4558 8.60862C27.2324 3.8544 24.6808 0.97116 19.5836 0.736439ZM23.5276 23.7256C21.8202 25.433 19.4516 25.2806 13.9717 25.2806C8.32932 25.2806 6.06678 25.3642 4.41581 23.7087C2.51434 21.8163 2.85852 18.7773 2.85852 14.1697C2.85852 7.93495 2.21868 3.44477 8.47606 3.12428C9.91369 3.0735 10.3369 3.05657 13.9559 3.05657L14.0067 3.09043C20.0203 3.09043 24.7384 2.46074 25.0217 8.71695C25.086 10.1445 25.1006 10.5733 25.1006 14.1867C25.0996 19.7636 25.2056 22.0397 23.5276 23.7256Z" fill="white"/>
<path d="M21.2288 8.58756C22.1257 8.58756 22.8528 7.86054 22.8528 6.9637C22.8528 6.06687 22.1257 5.33984 21.2288 5.33984C20.332 5.33984 19.605 6.06687 19.605 6.9637C19.605 7.86054 20.332 8.58756 21.2288 8.58756Z" fill="white"/>
</svg>
