<svg width="28" height="28" viewBox="0 0 28 28" fill="none" xmlns="http://www.w3.org/2000/svg">
<path fill-rule="evenodd" clip-rule="evenodd" d="M27.0833 14.193C27.0833 21.6718 21.0205 27.7346 13.5416 27.7346C6.06281 27.7346 0 21.6718 0 14.193C0 6.71417 6.06281 0.651367 13.5416 0.651367C21.0205 0.651367 27.0833 6.71417 27.0833 14.193ZM14.0268 10.6482C12.7097 11.196 10.0773 12.3299 6.12962 14.0498C5.48861 14.3047 5.15279 14.5541 5.12221 14.798C5.07055 15.2101 5.58667 15.3724 6.28946 15.5934C6.38504 15.6234 6.48407 15.6546 6.58559 15.6876C7.27698 15.9123 8.20707 16.1753 8.69056 16.1857C9.12915 16.1952 9.61865 16.0144 10.1591 15.6433C13.8475 13.1535 15.7515 11.895 15.871 11.8679C15.9554 11.8487 16.0723 11.8247 16.1514 11.895C16.2306 11.9654 16.2228 12.0987 16.2145 12.1345C16.1633 12.3524 14.1372 14.236 13.089 15.2106C12.7623 15.5143 12.5305 15.7298 12.4831 15.779C12.377 15.8893 12.2688 15.9935 12.1648 16.0938C11.5224 16.713 11.0407 17.1774 12.1915 17.9357C12.7444 18.3 13.1868 18.6014 13.6282 18.9019C14.1104 19.2303 14.5913 19.5578 15.2135 19.9656C15.372 20.0695 15.5233 20.1774 15.6708 20.2825C16.2318 20.6826 16.7359 21.0419 17.3587 20.9846C17.7206 20.9514 18.0943 20.6111 18.2841 19.5963C18.7327 17.1981 19.6145 12.0018 19.8183 9.86054C19.8362 9.67297 19.8137 9.43285 19.7957 9.32749C19.7776 9.22208 19.7399 9.07193 19.603 8.96073C19.4407 8.8291 19.1903 8.80132 19.0782 8.80332C18.5689 8.81226 17.7875 9.08401 14.0268 10.6482Z" fill="white"/>
</svg>
