<svg width="120" height="127" viewBox="0 0 120 127" fill="none" xmlns="http://www.w3.org/2000/svg">
<g clip-path="url(#clip0_846_1639)">
<path d="M106.568 12.4204C103.411 9.58739 90.7829 0.255279 62.369 0.0886335C62.369 0.0886335 28.9701 -1.91113 12.6861 13.0869C3.54709 22.2524 0.389975 35.4174 0.0576474 51.9153C-0.27468 68.4131 -0.773128 99.2425 28.9701 107.741V120.573C28.9701 120.573 28.804 125.739 32.1272 126.739C36.2813 128.072 38.6076 124.073 42.5955 119.906C44.7557 117.573 47.7466 114.24 49.9067 111.574C70.1787 113.241 85.7981 109.408 87.6259 108.741C91.7799 107.408 114.877 104.408 118.698 73.5791C122.686 41.5833 117.037 21.4192 106.568 12.4204V12.4204ZM110.058 71.0794C106.901 96.9094 88.1244 98.5758 84.6349 99.5757C83.1395 100.076 69.514 103.409 52.233 102.409C52.233 102.409 39.4384 117.907 35.2843 122.073C34.6197 122.739 33.955 122.906 33.4565 122.906C32.7919 122.739 32.6257 121.906 32.6257 120.74C32.6257 119.073 32.7919 99.4091 32.7919 99.4091C7.70119 92.41 9.19665 66.0801 9.36282 52.2485C9.69514 38.417 12.1876 27.2517 19.8311 19.5861C33.6227 7.0877 62.0367 8.9208 62.0367 8.9208C85.9642 9.08745 97.4295 16.2532 100.088 18.7529C108.729 26.4185 113.215 44.5829 110.058 71.0794V71.0794Z" fill="url(#paint0_linear_846_1639)"/>
<path d="M74.0006 51.2491C73.6683 44.9163 70.5111 41.5833 64.3628 41.25" stroke="#8BAEF3" stroke-width="1.92693" stroke-linecap="round" stroke-linejoin="round"/>
<path d="M82.3092 53.9159C82.4753 48.083 80.6475 43.0835 77.1579 39.2505C73.5022 35.2509 68.5171 33.0844 62.2026 32.5845" stroke="#8BAEF3" stroke-width="1.92693" stroke-linecap="round" stroke-linejoin="round"/>
<path d="M90.6177 57.2493C90.6177 47.0835 87.4605 39.0843 81.4784 33.2515C75.4962 27.4187 68.0186 24.4189 59.0454 24.4189" stroke="#8BAEF3" stroke-width="1.92693" stroke-linecap="round" stroke-linejoin="round"/>
<path d="M64.695 72.746C64.695 72.746 67.0213 72.9127 68.1844 71.4128L70.5108 68.4133C71.6739 66.9135 74.3325 65.9136 77.1573 67.4134C78.6528 68.2466 81.3114 69.913 82.973 71.2462C84.8008 72.5794 88.4564 75.579 88.4564 75.579C90.2842 77.0788 90.6165 79.2452 89.4534 81.5782C88.2903 83.7446 86.6286 85.7443 84.4685 87.5774C82.8069 89.0772 81.1452 89.7438 79.4836 90.0771H78.8189C78.1543 90.0771 77.3234 89.9105 76.6588 89.7438C74.1663 89.0772 70.0123 87.2442 62.8672 83.4113C58.3808 80.9116 54.5591 78.2453 51.402 75.7456C49.7403 74.4125 47.9125 72.9127 46.2509 71.0796L45.5862 70.413C43.7584 68.5799 42.2629 66.9135 40.9336 65.247C38.4412 62.0808 35.7825 58.2479 33.2901 53.7485C29.4683 46.7494 27.6406 42.5833 26.9759 39.9169C26.8097 39.2504 26.6436 38.5838 26.6436 37.7506V37.084C26.8097 35.4175 27.6405 33.7511 29.136 32.0846C30.9638 30.0849 32.9578 28.4184 35.1179 27.0852C37.4442 25.9187 39.6043 26.252 41.0998 28.0851C41.0998 28.0851 44.0908 31.7514 45.4201 33.5844C46.5832 35.2509 48.2448 37.9172 49.2418 39.417C50.7373 42.0833 49.7403 44.9163 48.411 46.0828L45.4201 48.4158C43.9246 49.5824 44.0907 51.9154 44.0907 51.9154C44.0907 51.9154 48.2449 68.4133 64.695 72.746V72.746Z" fill="url(#paint1_linear_846_1639)"/>
</g>
<defs>
<linearGradient id="paint0_linear_846_1639" x1="-0.0175788" y1="141.111" x2="100.981" y2="130.34" gradientUnits="userSpaceOnUse">
<stop offset="0.145604" stop-color="#7092E0"/>
<stop offset="1" stop-color="#8BAEF3"/>
</linearGradient>
<linearGradient id="paint1_linear_846_1639" x1="26.6436" y1="97.1518" x2="80.0105" y2="91.1458" gradientUnits="userSpaceOnUse">
<stop offset="0.145604" stop-color="#7092E0"/>
<stop offset="1" stop-color="#8BAEF3"/>
</linearGradient>
<clipPath id="clip0_846_1639">
<rect width="120" height="127" fill="white"/>
</clipPath>
</defs>
</svg>
