<svg width="28" height="28" viewBox="0 0 28 28" fill="none" xmlns="http://www.w3.org/2000/svg">
<path fill-rule="evenodd" clip-rule="evenodd" d="M2.81724 2.55186C0.916748 4.45236 0.916748 7.51118 0.916748 13.6287V14.7573C0.916748 20.8748 0.916748 23.9337 2.81724 25.8342C4.71774 27.7346 7.77656 27.7346 13.8941 27.7346H13.8941H15.0226H15.0227C21.1402 27.7346 24.199 27.7346 26.0995 25.8342C28 23.9337 28 20.8748 28 14.7573V14.7573V13.6287V13.6287C28 7.51117 28 4.45236 26.0995 2.55186C24.199 0.651367 21.1402 0.651367 15.0226 0.651367H13.8941C7.77656 0.651367 4.71774 0.651367 2.81724 2.55186ZM6.2771 9.11523H8.25237C8.75721 9.11523 8.94711 9.33613 9.13643 9.88299C10.1025 12.6965 11.7314 15.1553 12.401 15.1553C12.6521 15.1553 12.7673 15.0397 12.7673 14.4021V11.494C12.722 10.6662 12.4327 10.3082 12.2185 10.043C12.0862 9.87924 11.9825 9.75088 11.9825 9.56915C11.9825 9.34826 12.1713 9.11523 12.4851 9.11523H15.5891C16.0077 9.11523 16.1535 9.339 16.1535 9.84118V13.7535C16.1535 14.1719 16.3352 14.3184 16.4608 14.3184C16.7119 14.3184 16.9212 14.1719 17.3816 13.7116C18.8046 12.1216 19.809 9.67369 19.809 9.67369C19.9346 9.38087 20.1662 9.11523 20.6684 9.11523H22.6437C23.2411 9.11523 23.3666 9.42268 23.2411 9.84118C22.9899 10.9918 20.5833 14.3812 20.5833 14.3812C20.374 14.7159 20.2904 14.8833 20.5833 15.2599C20.6865 15.4043 20.9066 15.6198 21.1584 15.8664C21.4174 16.1201 21.7101 16.4067 21.9436 16.6826C22.7921 17.6369 23.4315 18.442 23.6097 18.9968C23.7724 19.5536 23.4903 19.8357 22.9259 19.8357H20.9506C20.4216 19.8357 20.1552 19.5394 19.5795 18.8992C19.3355 18.6278 19.0359 18.2946 18.6372 17.896C17.4652 16.7663 16.9631 16.6198 16.67 16.6198C16.2725 16.6198 16.1535 16.7324 16.1535 17.2967V19.0676C16.1535 19.5536 15.9982 19.8357 14.7426 19.8357C12.6499 19.8357 10.3502 18.5655 8.71793 16.2223C6.26952 12.7911 5.59985 10.1968 5.59985 9.67369C5.59985 9.38087 5.71273 9.11523 6.2771 9.11523Z" fill="white"/>
</svg>
