<svg width="50" height="50" viewBox="0 0 50 50" fill="none" xmlns="http://www.w3.org/2000/svg">
<path fill-rule="evenodd" clip-rule="evenodd" d="M3.50861 3.50861C0 7.01723 0 12.6643 0 23.9583V26.0417C0 37.3357 0 42.9828 3.50861 46.4914C7.01723 50 12.6643 50 23.9583 50H26.0417C37.3357 50 42.9828 50 46.4914 46.4914C50 42.9828 50 37.3357 50 26.0417V23.9583C50 12.6643 50 7.01723 46.4914 3.50861C42.9828 0 37.3357 0 26.0417 0H23.9583C12.6643 0 7.01723 0 3.50861 3.50861ZM9.89582 15.625H13.5425C14.4745 15.625 14.8251 16.0328 15.1746 17.0424C16.9581 22.2366 19.9653 26.7759 21.2016 26.7759C21.6651 26.7759 21.8778 26.5625 21.8778 25.3854V20.0165C21.7941 18.4883 21.2601 17.8273 20.8646 17.3378C20.6203 17.0355 20.4289 16.7985 20.4289 16.463C20.4289 16.0552 20.7774 15.625 21.3568 15.625H27.0873C27.8601 15.625 28.1292 16.0381 28.1292 16.9652V24.188C28.1292 24.9604 28.4647 25.2308 28.6965 25.2308C29.1601 25.2308 29.5465 24.9604 30.3965 24.1107C33.0235 21.1752 34.8779 16.656 34.8779 16.656C35.1098 16.1154 35.5373 15.625 36.4645 15.625H40.1111C41.214 15.625 41.4457 16.1926 41.214 16.9652C40.7503 19.0895 36.3074 25.3468 36.3074 25.3468C35.921 25.9647 35.7666 26.2737 36.3074 26.969C36.4978 27.2356 36.9041 27.6335 37.369 28.0888C37.8473 28.5571 38.3876 29.0862 38.8186 29.5955C40.3851 31.3573 41.5656 32.8436 41.8945 33.868C42.195 34.8958 41.6741 35.4167 40.6321 35.4167H36.9854C36.0087 35.4167 35.5169 34.8697 34.4542 33.6878C34.0037 33.1868 33.4506 32.5716 32.7145 31.8357C30.5509 29.75 29.6238 29.4796 29.0828 29.4796C28.3489 29.4796 28.1293 29.6875 28.1293 30.7292V33.9987C28.1293 34.8958 27.8425 35.4167 25.5245 35.4167C21.661 35.4167 17.4154 33.0717 14.402 28.7457C9.88182 22.4112 8.64551 17.6218 8.64551 16.656C8.64551 16.1154 8.8539 15.625 9.89582 15.625Z" fill="url(#paint0_linear_319_974)"/>
<defs>
<linearGradient id="paint0_linear_319_974" x1="-2.95619e-07" y1="55.5556" x2="42.0259" y2="50.8122" gradientUnits="userSpaceOnUse">
<stop offset="0.145604" stop-color="#7092E0"/>
<stop offset="1" stop-color="#8BAEF3"/>
</linearGradient>
</defs>
</svg>
