<svg width="196" height="196" viewBox="0 0 196 196" fill="none" xmlns="http://www.w3.org/2000/svg">
<path fill-rule="evenodd" clip-rule="evenodd" d="M0.956055 195.125C6.23705 178.075 12.358 161.865 17.954 145.131C-19.141 80.253 26.7661 7.21604 88.9451 1.14904C147.652 -4.57996 195.786 37.588 195.932 95.137C196.085 155.86 137.192 206.85 70.9471 186.125C65.9501 184.562 59.7671 179.468 53.9491 179.126C45.8181 178.647 35.162 184.485 26.952 187.125C17.953 190.02 10.1281 192.921 0.956055 195.125ZM55.9491 161.129C109.444 193.595 173.5 157.18 178.934 104.136C183.852 56.117 145.51 13.391 93.9441 17.147C35.0741 21.434 -0.287941 91.706 35.9511 143.131C32.7431 151.922 29.741 160.919 26.952 170.128C36.774 167.284 45.8281 163.673 55.9491 161.129Z" fill="url(#paint0_linear_846_1626)"/>
<path fill-rule="evenodd" clip-rule="evenodd" d="M76.947 50.1432C82.574 61.9132 91.278 79.3222 76.947 87.1392C84.225 102.525 96.258 113.156 111.942 120.135C117.158 116.685 120.583 111.444 124.941 107.137C134.045 110.698 142.555 114.852 149.937 120.135C150.696 137.336 136.201 143.697 123.941 143.132C98.076 141.942 62.527 109.265 53.95 85.1392C48.86 70.8242 54.714 43.4442 76.947 50.1432Z" fill="url(#paint1_linear_846_1626)"/>
<defs>
<linearGradient id="paint0_linear_846_1626" x1="0.956054" y1="216.736" x2="164.827" y2="198.195" gradientUnits="userSpaceOnUse">
<stop offset="0.145604" stop-color="#7092E0"/>
<stop offset="1" stop-color="#8BAEF3"/>
</linearGradient>
<linearGradient id="paint1_linear_846_1626" x1="52.2375" y1="153.618" x2="134.298" y2="143.995" gradientUnits="userSpaceOnUse">
<stop offset="0.145604" stop-color="#7092E0"/>
<stop offset="1" stop-color="#8BAEF3"/>
</linearGradient>
</defs>
</svg>
