<svg width="150" height="150" viewBox="0 0 150 150" fill="none" xmlns="http://www.w3.org/2000/svg">
<rect width="150" height="150" rx="37" fill="white"/>
<path d="M73.2095 80.6209C76.7023 86.3339 73.2172 93.8965 66.6634 95.1499C60.018 96.4721 53.8846 90.6368 54.9317 83.9264C55.5087 79.7152 59.0397 76.1269 63.2586 75.5537L63.4458 75.5269C63.4687 75.5613 63.5528 75.6721 63.5719 75.7027C64.019 76.1766 65.089 77.3383 65.624 77.9077C65.7043 77.9955 65.7998 78.0873 65.8571 78.2057C65.4406 79.761 64.6305 81.2055 63.5414 82.3749L63.5223 82.0807L64.8521 83.2156L64.7031 83.1774L70.5689 81.9736L70.5307 82.0233V82.0157C70.8555 81.5074 71.2721 81.0412 71.6963 80.6056C71.3179 81.0145 70.8708 81.6488 70.6301 82.0195V82.0577L70.588 82.0692L64.7757 83.5213L64.6954 83.5404C64.2101 83.1621 63.7324 82.7762 63.2547 82.3902L63.0943 82.2602L63.2395 82.0998C64.2369 80.9763 64.9591 79.6196 65.3221 78.1713L65.3413 78.3586C65.3374 78.37 65.3642 78.4044 65.3527 78.3892C65.047 78.0682 64.5617 77.5828 64.2521 77.2618L63.1134 76.0963L63.1019 76.0848L63.0904 76.0657L63.0675 76.0352L63.3579 76.1536C61.4167 76.4937 59.59 77.43 58.222 78.8477C52.9025 84.2436 56.0972 93.5946 63.6178 94.5843C71.3141 95.6467 76.8475 87.4459 73.2095 80.6209Z" fill="#171B2E"/>
<path d="M61.3478 67.5478L61.2217 68.8968C61.237 68.442 61.279 67.9949 61.3478 67.5478Z" fill="#004661"/>
<path d="M65.5718 78.2363C65.1668 79.7457 64.4063 81.11 63.386 82.2335C62.6599 83.0169 61.8307 83.678 60.8906 84.1862C60.883 84.1938 60.8829 84.1939 60.8829 84.1939C59.5111 84.9429 57.9328 85.367 56.2705 85.367C55.9762 85.367 55.6973 85.3517 55.4183 85.3212C55.4107 85.3212 55.4107 85.3212 55.4107 85.3212C55.3381 85.3212 55.2655 85.3135 55.1891 85.2982C50.3779 84.7709 46.6367 80.6858 46.6367 75.7332C46.6367 73.4213 47.4507 71.3042 48.8073 69.6457C50.1715 67.9719 52.0937 66.772 54.2872 66.3096C56.003 67.9223 58.3226 68.9082 60.86 68.9082C60.9861 68.9082 61.1008 68.9082 61.2192 68.9006C61.2116 69.0343 61.2116 69.1566 61.2116 69.2903C61.2116 71.7322 61.9835 73.9983 63.3019 75.8555L65.5718 78.2363Z" fill="#171B2E"/>
<path d="M92.7483 53.1869C92.7483 54.7269 92.3929 56.3281 91.6477 57.6656C90.9904 57.6236 90.3026 57.6809 89.6529 57.7764C86.6455 58.2503 83.9475 60.268 82.6635 63.0041C82.5947 63.0079 82.4534 62.9888 82.3846 62.9888L82.312 62.985L82.2546 62.9009C80.8407 60.6616 78.0129 58.877 75.8079 58.3458H75.8003H75.7735L75.7124 58.3344L74.5889 58.1127C74.5889 58.1127 74.6615 58.1165 74.6347 58.1165L74.4246 58.1203L74.3176 57.9293C73.0374 55.6288 72.7584 52.8048 73.538 50.2903C74.9137 45.8651 79.0638 43.148 83.3896 43.3735C88.5141 43.5187 92.8209 48.0739 92.7483 53.1869ZM92.7483 53.1869C92.7674 48.2917 88.8733 44.0958 83.9857 43.7633C82.1706 43.6448 80.3172 44.0231 78.7466 44.9174L78.6128 44.9517C78.6014 44.9556 78.7084 44.9479 78.7695 44.8983C78.8268 44.8524 78.8345 44.8256 78.8421 44.8104L78.7236 44.9326C77.6575 45.5364 76.7059 46.3351 75.934 47.2866C73.6068 50.1374 73.1941 54.3448 74.9443 57.5853L74.6271 57.3981C74.6424 57.3981 74.6729 57.3981 74.6882 57.4019C77.7568 57.8834 80.814 59.7903 82.5871 62.6755L82.4572 62.5876C82.4839 62.5876 82.5069 62.5914 82.5336 62.5914L82.354 62.6984C83.8061 59.9623 86.6149 58.0974 89.63 57.6885C90.2873 57.6083 90.9828 57.5662 91.6439 57.6236C92.3088 56.3472 92.7712 54.7117 92.7483 53.1869Z" fill="#171B2E"/>
<path d="M78.9875 44.5582C78.7468 44.692 78.5099 44.8296 78.2844 44.9824C78.2767 44.9824 78.2691 44.9824 78.2615 44.9977C75.6438 46.7059 73.905 49.6713 73.905 53.0456C73.905 54.9907 74.4783 56.802 75.468 58.3115C75.0859 58.2083 74.7037 58.1281 74.3101 58.0708C74.3025 58.0708 74.3025 58.0708 74.3025 58.0708C73.7369 57.9829 73.1599 57.937 72.5714 57.937C71.8377 57.937 71.1269 58.002 70.4314 58.1434C69.9613 54.108 66.9997 50.8368 63.1172 49.9044C63.9694 45.4677 67.8787 42.1087 72.5714 42.1087C75.04 42.1087 77.287 43.0335 78.9875 44.5582Z" fill="#171B2E"/>
<path d="M70.4283 58.1435C65.2617 59.2594 61.5282 63.9177 61.4938 69.1798C55.3719 69.7224 50.0257 64.0743 50.9428 57.9906C51.5237 53.1031 55.9909 49.2167 60.9167 49.3657C65.7394 49.3695 70.0843 53.3362 70.4283 58.1435ZM70.4283 58.1435C69.2016 50.065 59.1512 47.0346 53.8089 53.2406C50.1136 57.4518 51.2409 64.403 56.075 67.2347C57.5998 68.1747 59.4188 68.6371 61.2072 68.6027L60.9282 68.8893C61.1116 63.6387 65.2006 58.9078 70.4283 58.1435Z" fill="#171B2E"/>
<path d="M61.3488 67.5478L61.2227 68.8968C61.2379 68.442 61.28 67.9949 61.3488 67.5478Z" fill="white"/>
<path d="M61.3484 67.5478C61.3064 67.9834 61.4134 68.4496 61.4134 68.9159L61.0312 68.8929C61.1115 68.4305 61.314 67.9873 61.3484 67.5478ZM61.3484 67.5478C61.2835 68.014 61.3828 68.4687 61.4134 68.9044L61.0312 68.8815C61.1459 68.4573 61.3179 68.0178 61.3484 67.5478Z" fill="#004757"/>
<path d="M61.3488 67.5478L61.2227 68.8968C61.2379 68.442 61.28 67.9949 61.3488 67.5478Z" fill="white"/>
<path d="M61.3484 67.5478C61.3064 67.9834 61.4134 68.4496 61.4134 68.9159L61.0312 68.8929C61.1115 68.4305 61.314 67.9873 61.3484 67.5478ZM61.3484 67.5478C61.2835 68.014 61.3828 68.4687 61.4134 68.9044L61.0312 68.8815C61.1459 68.4573 61.3179 68.0178 61.3484 67.5478Z" fill="#004757"/>
<path d="M71.6885 80.6055C71.9827 80.6284 72.277 80.6437 72.575 80.6437C72.789 80.6437 72.9916 80.6361 73.2056 80.6208" fill="white"/>
<path d="M71.6885 80.6056C72.1967 80.3687 72.7164 80.3917 73.2056 80.6209C72.7394 80.9114 72.1662 80.8923 71.6885 80.6056Z" fill="#004757"/>
<path d="M104.776 61.3725C104.776 64.8576 102.926 67.9071 100.163 69.6038C100.308 68.9503 100.385 68.2701 100.385 67.5708C100.385 62.4425 96.3799 58.2542 91.3241 57.9599C91.1331 57.9446 90.9343 57.937 90.7433 57.937C88.909 57.937 87.1932 58.4491 85.7334 59.3395C86.4671 55.9155 89.0198 53.1717 92.3292 52.159C93.2157 51.8877 94.1634 51.7425 95.1455 51.7425C100.461 51.7425 104.776 56.053 104.776 61.3725Z" fill="#171B2E"/>
<path d="M83.6889 74.1206C77.5021 78.9662 78.0294 88.8827 85.5614 92.5971C95.4818 97.1064 104.863 86.3453 99.3453 77.0402C98.7874 76.1651 98.0919 75.3205 97.3238 74.6136C98.1607 75.267 98.8791 76.0695 99.5058 76.937C105.846 86.6014 95.6614 98.142 85.2404 93.2659C77.3492 89.3145 76.9136 78.7866 83.6889 74.1206Z" fill="#171B2E"/>
<path d="M71.6673 80.6134C71.2584 81.0452 70.8916 81.5152 70.5515 82.0235V82.0311C69.642 83.3954 69.042 84.9889 68.8509 86.697C68.8012 87.1021 68.7783 87.5034 68.7783 87.9237C68.7783 89.8956 69.3133 91.7451 70.2457 93.3387C72.1029 96.5143 75.5499 98.6428 79.4897 98.6428C80.8998 98.6428 82.2412 98.3715 83.464 97.8709C85.8257 96.9384 87.7708 95.1806 88.9516 92.9489C89.7579 91.4509 90.205 89.7351 90.205 87.9237C90.205 83.873 87.9618 80.3535 84.6448 78.5268C83.4258 77.8657 82.0692 77.4263 80.6323 77.2811C80.6094 77.2734 80.5865 77.2734 80.575 77.2734C80.5521 77.3193 80.5368 77.3537 80.5177 77.3995V77.4072H80.5101C80.3916 77.5256 80.2693 77.6365 80.1432 77.7511C80.1356 77.7588 80.1279 77.7664 80.1203 77.774C79.7534 78.095 79.3636 78.3969 78.9624 78.6759C78.8248 78.7714 78.6834 78.867 78.5382 78.9548C78.4006 79.0427 78.2516 79.123 78.1064 79.2109C77.9612 79.2911 77.8121 79.3714 77.6593 79.444C77.5255 79.509 77.3956 79.5777 77.2619 79.6351C77.0479 79.7382 76.8377 79.8261 76.616 79.9064C76.4976 79.9523 76.3753 79.9943 76.2492 80.0401C76.0887 80.0898 75.9282 80.1433 75.7639 80.193C75.5957 80.2389 75.4276 80.2809 75.2633 80.3267C74.5869 80.4872 73.899 80.5981 73.1882 80.6363L71.6673 80.6134Z" fill="#171B2E"/>
<path d="M100.384 67.5785C100.426 73.5514 95.0106 77.9919 89.5957 77.3537C82.7859 76.7346 78.7046 69.2637 81.7809 63.1724C86.6188 53.9895 100.189 57.2225 100.384 67.5785ZM100.384 67.5785C100.361 59.3701 90.551 55.0901 84.5285 60.6617C78.7008 66.0461 81.8076 75.8748 89.6645 76.9372C95.2514 77.7549 100.437 73.2266 100.384 67.5785Z" fill="#171B2E"/>
<path d="M83.1154 73.4747C79.7372 82.5582 67.2336 83.4754 62.4033 75.1141C56.3846 64.2307 68.6246 52.9423 78.9156 59.5724C80.3181 60.5201 81.4989 61.7583 82.3817 63.2028C80.6123 66.3898 80.9104 70.5513 83.1154 73.4747ZM83.1154 73.4747C81.346 71.3615 80.62 68.4572 81.09 65.744C81.2391 64.8307 81.5371 63.9441 81.9537 63.1149L81.9613 63.3212C80.2684 60.6539 77.2228 58.812 74.2956 58.3992C67.8412 57.3675 61.8301 62.3353 61.5817 68.8546C61.3524 73.0009 63.7026 77.1013 67.3673 79.0464C73.1147 82.2525 80.5971 79.547 83.1154 73.4747Z" fill="#171B2E"/>
<path d="M104.561 55.2162C111.062 54.0545 117.562 52.8431 124.142 52.1553C129.087 51.6547 134.082 51.1541 139.065 51.6891C141.92 51.9604 145.921 53.3323 143.016 56.7754C141.27 58.6823 139 59.9395 136.795 61.1738C133.86 62.7597 130.83 64.1278 127.777 65.4156C121.666 67.9951 115.422 70.1962 109.143 72.275L109.747 71.4496C109.751 71.8967 109.35 72.3362 108.884 72.3247L109.14 72.2827L103.041 74.1972C98.6994 75.6073 94.5455 76.7423 90.0095 78.0377L89.8949 78.0721H89.765H89.7573L90.4146 77.8008C90.2617 77.9651 89.9675 78.0874 89.7458 78.0798L89.9942 78.0454C85.5461 79.2567 80.0738 80.7089 75.6181 81.7904C74.0169 82.1878 72.4043 82.5585 70.7993 82.9368C70.7993 82.9406 71.5444 81.9891 71.5368 82.0196V82.7801C71.189 82.8565 66.4429 83.9342 65.9537 84.0412C64.3411 84.4042 62.717 84.7443 61.0967 85.0997L61.5667 84.8475L61.5591 84.8551L61.3604 85.0538L61.0929 85.1074L55.613 86.2308C45.6773 88.1874 31.668 90.6369 20.1464 91.2369C17.1657 91.3821 14.1621 91.4585 11.1737 91.1796C9.64516 91.0153 8.06308 90.8166 6.63005 90.1287C2.93474 88.1454 6.50777 85.0539 8.73566 83.6552C12.9277 80.9611 17.5593 79.0466 22.1488 77.2238C29.5127 74.373 37.0714 71.912 44.6187 69.7414C35.283 72.8979 25.9741 76.1614 17.0663 80.365C13.6232 82.0693 9.98143 83.7316 7.19561 86.4066C6.88226 86.7353 6.61095 87.0907 6.44281 87.4384C6.27849 87.7938 6.26702 88.0728 6.3893 88.2982C6.79437 88.8905 7.72296 89.2077 8.4796 89.3873C10.3253 89.823 12.2857 89.8994 14.1965 89.9223C27.7739 89.7733 42.6469 86.8576 55.2461 84.4195L60.6954 83.2845L60.2292 83.5368L60.2369 83.5291L60.4279 83.338L60.7069 83.2769C63.4851 82.6884 67.5511 81.7483 70.3674 81.1025L69.6299 82.0273C69.6261 82.0235 69.6337 81.2745 69.6299 81.2706L70.3674 81.0949C76.4855 79.658 83.4214 77.9116 89.4898 76.2608L89.7382 76.2264C89.5242 76.2149 89.2414 76.3334 89.0962 76.4901L89.7535 76.2187H89.7611L89.5166 76.2531L96.3531 74.331L96.6129 74.2927C96.4945 74.2851 96.3645 74.3195 96.2614 74.3768L96.4219 74.3157C99.9261 73.303 105.07 71.6942 108.601 70.6395L108.857 70.5974C108.413 70.5821 107.985 71.0216 108.008 71.4573L108.612 70.6318C117.971 67.5747 127.372 64.4297 136.157 59.9815C137.938 59.0033 143.12 56.3397 142.791 54.3641C141.132 51.456 127.62 52.6024 124.211 52.8278C117.623 53.3132 111.1 54.3411 104.561 55.2162Z" fill="#829FD3"/>
<path d="M42.478 31.1373C42.1341 34.8785 38.412 37.3662 35.0874 36.6745C30.7883 35.9561 28.4572 30.8354 30.9259 27.0484C34.6212 21.5494 43.0741 24.553 42.478 31.1373ZM42.478 31.1373C43.0283 26.0128 37.0898 22.6729 33.0124 25.8179C29.0878 28.7833 30.3718 35.0543 35.1332 36.2618C38.5687 37.1637 42.1417 34.6836 42.478 31.1373Z" fill="#171B2E"/>
<path fill-rule="evenodd" clip-rule="evenodd" d="M112.435 117.51C105.846 113.993 97.967 109.132 88.8514 102.812H88.8439L88.6108 102.647L86.7837 101.356H86.7803C71.8499 90.7075 57.476 79.0606 44.0811 66.5216C43.9899 66.4568 43.9497 66.4121 44.0034 66.4547L43.9843 66.4394L43.9499 66.4051L43.8773 66.3363L43.7359 66.2025L43.4493 65.9312C34.3963 57.2298 25.4428 48.2686 18.2853 37.8935C16 34.4351 9.85521 24.9771 16.7567 23.4141C20.3461 22.9769 25.5488 24.6797 31.1783 27.3477C31.015 27.618 30.8719 27.9026 30.7513 28.1995C27.2774 26.6175 23.7067 25.2779 19.9667 24.6217C6.20575 22.6346 24.3766 43.6065 27.4032 46.9923C32.6461 52.9498 38.3286 58.617 44.118 64.0549C44.3189 64.2467 44.5638 64.4746 44.7991 64.6936C44.9605 64.8437 45.1173 64.9896 45.2524 65.1169C45.1466 65.035 44.8915 64.8663 44.6645 64.8956L45.2839 65.1449C45.3078 65.1653 45.3078 65.1629 45.2897 65.1472L45.2912 65.1478C46.9421 66.6802 48.6388 68.2508 50.3316 69.7526C55.2727 74.1816 60.8023 78.9087 65.9154 83.0741L66.0526 83.1848C69.4434 85.9217 73.1507 88.914 76.6497 91.5232C77.6339 92.2616 78.6148 93.0045 79.5957 93.7474C82.1657 95.6939 84.7365 97.641 87.3706 99.51H87.3803L87.6401 99.6934L89.4418 100.974H89.4438L89.6808 101.138C96.8956 106.19 104.259 111.047 111.925 115.346C112.179 115.489 112.523 115.682 112.941 115.913C112.713 116.428 112.544 116.964 112.435 117.51ZM126.106 123.544C145.116 129.454 139.448 112.278 104.875 81.2513C113.534 89.7157 132.549 108.383 135.534 119.477C136.516 124.254 132.133 124.065 126.844 122.315C126.639 122.742 126.393 123.154 126.106 123.544ZM45.2897 65.1472L45.2839 65.1449C45.277 65.139 45.268 65.1311 45.2568 65.1211L45.2524 65.1169C45.2685 65.1294 45.2811 65.1398 45.2897 65.1472ZM41.5895 33.7282C41.7022 33.5478 41.8058 33.3609 41.8997 33.1679C48.9958 37.4179 55.6095 42.0307 59.4534 44.7414C53.6382 40.9065 47.6941 37.1437 41.5895 33.7282Z" fill="#829FD3"/>
<path d="M114.673 113.462C118.108 110.134 123.695 110.894 126.244 114.31C130.489 119.725 126.144 127.605 119.308 126.963C112.651 126.302 109.816 118.071 114.673 113.462ZM114.673 113.462C109.965 117.937 112.88 125.939 119.358 126.321C125.567 126.711 129.507 119.653 125.911 114.574C123.374 110.886 117.883 110.344 114.673 113.462Z" fill="#171B2E"/>
<path d="M89.3283 76.2912L89.3971 76.2682L89.8098 76.1765L90.0735 76.2529L89.4468 76.7344L88.5029 76.7536L88.9997 76.3943L89.3283 76.2912Z" fill="#829FD3"/>
<path d="M107.293 72.5307L107.105 71.3881L108.405 70.6888L108.863 70.5474L108.963 70.5321" fill="#829FD3"/>
</svg>
